<svg width="692" height="449" viewBox="0 0 692 449" fill="none" xmlns="http://www.w3.org/2000/svg">
<g clip-path="url(#clip0)">
<path d="M86.33 75.65H72.22V138.9H86.33V75.65Z" fill="#E0E0E0"/>
<path d="M47.6592 100.219V114.329H110.909V100.219H47.6592Z" fill="#E0E0E0"/>
<path d="M131.81 107.42C131.79 107.42 131.76 107.13 131.71 106.57C131.67 105.95 131.61 105.13 131.53 104.07C131.49 103.52 131.45 102.9 131.41 102.23C131.34 101.56 131.19 100.83 131.07 100.03C130.81 98.44 130.57 96.6 129.96 94.6C129.02 90.54 127.11 85.74 124.1 80.66C121.07 75.6 116.7 70.31 110.76 65.83C104.84 61.39 97.37 57.61 88.75 56.09C80.19 54.62 70.52 54.89 61.32 58.39C58.98 59.14 56.78 60.3 54.51 61.39C52.37 62.69 50.11 63.88 48.11 65.5C45.99 66.96 44.13 68.78 42.19 70.53C40.44 72.47 38.59 74.37 37.08 76.58C33.98 80.89 31.26 85.68 29.62 90.95C27.92 96.19 27 101.75 26.93 107.41C27 113.07 27.92 118.64 29.62 123.87C31.26 129.14 33.97 133.93 37.08 138.25C38.59 140.46 40.44 142.36 42.19 144.3C44.13 146.06 45.99 147.88 48.11 149.34C50.11 150.96 52.36 152.16 54.51 153.46C56.77 154.55 58.98 155.71 61.32 156.46C70.52 159.96 80.19 160.23 88.75 158.76C97.37 157.24 104.84 153.46 110.76 149.02C116.7 144.54 121.07 139.25 124.1 134.19C127.11 129.11 129.02 124.31 129.96 120.25C130.57 118.25 130.82 116.41 131.07 114.82C131.19 114.03 131.34 113.3 131.41 112.62C131.45 111.95 131.49 111.33 131.53 110.78C131.61 109.72 131.67 108.9 131.71 108.28C131.75 107.71 131.79 107.42 131.81 107.42C131.83 107.42 131.83 107.71 131.82 108.27C131.8 108.89 131.78 109.72 131.75 110.78C131.73 111.34 131.71 111.96 131.68 112.63C131.62 113.31 131.49 114.05 131.39 114.85C131.17 116.45 130.95 118.31 130.37 120.34C129.49 124.45 127.62 129.32 124.63 134.5C121.61 139.65 117.23 145.05 111.23 149.64C105.25 154.19 97.68 158.07 88.91 159.66C80.2 161.2 70.36 160.96 60.96 157.42C58.57 156.66 56.32 155.49 54.01 154.38C51.82 153.06 49.51 151.85 47.47 150.2C45.3 148.72 43.41 146.86 41.42 145.07C39.62 143.09 37.74 141.15 36.19 138.9C33.01 134.5 30.24 129.61 28.56 124.23C26.82 118.88 25.88 113.2 25.81 107.42C25.89 101.64 26.82 95.96 28.56 90.61C30.24 85.23 33.01 80.34 36.19 75.94C37.74 73.69 39.62 71.75 41.42 69.77C43.4 67.98 45.3 66.13 47.47 64.64C49.51 62.99 51.82 61.77 54.01 60.46C56.32 59.36 58.57 58.18 60.96 57.42C70.36 53.88 80.2 53.64 88.91 55.18C97.68 56.77 105.25 60.65 111.23 65.2C117.23 69.79 121.61 75.19 124.63 80.34C127.62 85.51 129.49 90.38 130.38 94.5C130.96 96.53 131.18 98.39 131.4 99.99C131.51 100.79 131.64 101.53 131.69 102.21C131.71 102.89 131.74 103.5 131.76 104.06C131.79 105.12 131.81 105.95 131.83 106.57C131.83 107.13 131.82 107.42 131.81 107.42Z" fill="#E0E0E0"/>
<path d="M13.55 224.43C13.55 224.43 1.7 228.52 13.78 253.86C25.86 279.2 34.37 291.82 34.37 291.82C34.37 291.82 36.48 297.68 31.57 298.45C26.66 299.22 15.95 297.21 13.61 303.13C11.19 309.27 15.53 315.24 24.53 320.62C33.52 326 52.79 338.5 54.53 339.64C56.24 340.76 57.9 343.5 54.64 344.56C51.38 345.62 27.11 347.49 28.69 358.96C30.27 370.42 57.78 381.28 60.77 382.53C63.76 383.78 64.44 385.07 64.15 386.72C63.86 388.37 55.64 388.23 48.76 389.05C41.88 389.87 34.05 392.02 35.51 398.55C36.97 405.09 53.07 419.17 92.93 424.16L111.55 425.26L122.12 409.79C142.72 375.3 141.52 353.95 137.27 348.77C133.02 343.59 126.5 348.44 121.63 353.36C116.75 358.28 111.81 364.84 110.33 364.06C108.85 363.27 108.25 361.93 109.11 358.81C109.97 355.69 118.34 327.32 110.28 319.02C102.22 310.72 85.81 328.7 82.97 330.61C80.13 332.53 78.99 329.52 79.16 327.49C79.33 325.42 81.34 302.54 82.63 292.14C83.93 281.74 81.9 274.64 75.56 272.78C69.46 270.98 64.44 280.66 60.82 284.05C57.19 287.45 53.87 282.18 53.87 282.18C53.87 282.18 49.16 267.71 36.62 242.59C24.08 217.47 13.33 224.52 13.33 224.52" fill="#EBEBEB"/>
<path d="M112.4 429.67C103.26 411.19 87.57 378.06 73.96 349.69C60.35 321.33 48 295.66 38.96 277.13C34.44 267.89 30.77 260.4 28.23 255.2C26.97 252.63 25.99 250.62 25.32 249.23C25 248.56 24.75 248.04 24.58 247.67C24.42 247.32 24.34 247.13 24.34 247.13C24.34 247.13 24.45 247.3 24.63 247.64C24.82 248.01 25.08 248.52 25.43 249.17C26.13 250.55 27.14 252.53 28.44 255.09C31.05 260.23 34.77 267.7 39.34 276.94C48.48 295.42 60.88 321.06 74.5 349.43C88.12 377.8 103.75 410.95 112.79 429.48" fill="#E0E0E0"/>
<path d="M28.48 306.54C28.49 306.5 28.95 306.65 29.77 306.94C30.59 307.23 31.76 307.68 33.2 308.25C36.08 309.4 40.02 311.08 44.33 313.02C48.58 314.95 52.41 316.69 55.35 318.02C56.68 318.61 57.8 319.11 58.7 319.51C59.49 319.86 59.92 320.07 59.91 320.11C59.9 320.15 59.44 320.01 58.62 319.72C57.8 319.43 56.63 318.98 55.19 318.39C52.32 317.22 48.41 315.48 44.09 313.54C39.83 311.65 35.98 309.93 33.04 308.62C31.71 308.03 30.59 307.54 29.68 307.14C28.89 306.79 28.46 306.58 28.48 306.54Z" fill="#E0E0E0"/>
<path d="M61.21 318.94C61.06 318.88 64.17 310.61 68.16 300.47C72.15 290.32 75.5 282.15 75.65 282.21C75.8 282.27 72.69 290.54 68.7 300.68C64.71 310.82 61.36 319 61.21 318.94Z" fill="#E0E0E0"/>
<path d="M80.15 363.45C80.12 363.42 80.4 363.02 80.94 362.32C81.55 361.53 82.32 360.53 83.23 359.36C85.16 356.86 87.81 353.39 90.59 349.46C93.38 345.53 95.79 341.89 97.51 339.24C98.32 337.99 99 336.94 99.55 336.1C100.04 335.36 100.32 334.96 100.36 334.98C100.39 335 100.18 335.44 99.75 336.21C99.32 336.99 98.68 338.1 97.86 339.45C96.23 342.16 93.87 345.85 91.07 349.79C88.28 353.73 85.57 357.17 83.56 359.61C82.55 360.83 81.72 361.8 81.12 362.46C80.52 363.12 80.18 363.47 80.15 363.45Z" fill="#E0E0E0"/>
<path d="M48.08 358.75C48.09 358.71 48.54 358.73 49.35 358.81C50.29 358.91 51.44 359.03 52.79 359.18C55.69 359.51 59.7 360.02 64.12 360.61C68.54 361.2 72.54 361.77 75.43 362.2C76.78 362.42 77.92 362.6 78.85 362.75C79.66 362.89 80.1 362.99 80.09 363.03C80.08 363.07 79.63 363.05 78.82 362.97C77.88 362.87 76.73 362.75 75.38 362.6C72.48 362.27 68.47 361.76 64.05 361.17C59.63 360.58 55.63 360.01 52.75 359.58C51.4 359.36 50.26 359.18 49.33 359.03C48.51 358.88 48.07 358.79 48.08 358.75Z" fill="#E0E0E0"/>
<path d="M59.81 400.16C59.81 400.12 60.39 400.15 61.44 400.25C62.59 400.37 64.07 400.52 65.85 400.7C69.57 401.11 74.71 401.71 80.38 402.41C86.05 403.11 91.18 403.78 94.89 404.29C96.66 404.55 98.14 404.76 99.28 404.93C100.31 405.09 100.88 405.2 100.88 405.24C100.88 405.28 100.3 405.25 99.25 405.15C98.1 405.03 96.62 404.88 94.84 404.7C91.12 404.29 85.98 403.69 80.31 402.99C74.64 402.29 69.51 401.62 65.8 401.11C64.03 400.85 62.55 400.64 61.41 400.47C60.37 400.31 59.8 400.2 59.81 400.16Z" fill="#E0E0E0"/>
<path d="M99.94 404.84C99.91 404.82 100.25 404.3 100.9 403.38C101.61 402.38 102.55 401.09 103.67 399.52C106 396.26 109.21 391.74 112.6 386.66C116.01 381.58 118.97 376.9 121.09 373.49C122.11 371.86 122.96 370.5 123.6 369.46C124.2 368.51 124.54 368 124.58 368.02C124.61 368.04 124.33 368.59 123.8 369.58C123.26 370.56 122.46 371.98 121.44 373.71C119.41 377.17 116.5 381.9 113.08 386.99C109.68 392.08 106.41 396.57 103.99 399.77C102.78 401.37 101.78 402.65 101.07 403.52C100.37 404.4 99.97 404.87 99.94 404.84Z" fill="#E0E0E0"/>
<path d="M571.45 421.33C543.97 404.5 535.93 370.67 535.12 339.87C534.98 334.73 534.09 329.35 536.26 324.71C538.43 320.06 543.94 316.64 548.66 318.53C552.58 320.09 554.51 324.43 556.86 327.96C559.99 332.67 564.46 336.45 569.59 338.73C572.96 340.23 577.06 341.02 580.18 339.05C584.46 336.34 584.61 330.2 584.27 325.09C583.64 315.58 583 306.08 582.37 296.57C582.03 291.47 581.7 286.26 583 281.32C584.29 276.38 587.53 271.67 592.3 270.02C597.07 268.37 603.24 270.8 604.57 275.74C605.12 277.79 604.83 279.98 605.1 282.08C605.37 284.19 606.5 286.47 608.55 286.94C610.62 287.42 612.58 285.85 614.01 284.26C618.97 278.79 622.14 271.94 625.08 265.14C628.02 258.34 630.86 251.39 635.3 245.48C639.74 239.57 646.08 234.72 653.36 233.87C660.64 233.02 668.7 237.06 670.98 244.12C673.27 251.2 669.51 258.75 665.29 264.85C659.04 273.9 651.48 282.02 642.94 288.89C641.4 290.13 639.73 291.47 639.23 293.39C638.33 296.86 641.75 300.04 645.18 300.96C649.06 302 653.16 301.35 657.17 301.58C661.18 301.81 665.59 303.3 667.32 306.97C669.72 312.06 665.69 317.79 661.62 321.63C653.46 329.32 643.99 335.57 633.75 340.04C630.08 341.64 626.2 343.08 623.33 345.9C620.46 348.72 618.91 353.42 620.96 356.9C623.01 360.39 627.77 361.25 631.66 360.29C635.55 359.32 638.94 356.98 642.6 355.34C649.45 352.27 658.54 352.21 663.39 358C666.58 361.81 667.18 367.34 665.97 372.18C664.76 377.02 661.98 381.29 659 385.26C648.56 399.12 634.81 410.61 618.88 417.23C602.96 423.83 587.98 426.26 571.45 421.33Z" fill="#F5F5F5"/>
<path d="M578.22 401.58C581.81 385.8 587.17 368.82 593.4 351.26C594.97 346.88 596.53 342.54 598.06 338.27C599.6 334.01 601.12 329.79 602.87 325.75C606.33 317.66 610.27 310.14 614.24 303.12C618.2 296.1 622.22 289.58 626.02 283.51C629.84 277.45 633.5 271.86 637.05 266.91C644.13 256.98 650.78 249.67 655.55 244.83C657.93 242.4 659.84 240.58 661.15 239.36C661.78 238.78 662.28 238.33 662.65 237.98C662.99 237.68 663.17 237.52 663.18 237.54C663.19 237.55 663.03 237.73 662.71 238.05C662.35 238.41 661.88 238.89 661.28 239.49C660.01 240.75 658.15 242.61 655.81 245.08C651.13 249.99 644.58 257.35 637.59 267.29C634.08 272.25 630.46 277.84 626.68 283.91C622.91 289.99 618.92 296.52 614.99 303.54C611.06 310.55 607.15 318.05 603.72 326.11C601.99 330.13 600.48 334.32 598.94 338.59C597.41 342.86 595.86 347.19 594.29 351.57C588.07 369.12 582.69 386.04 579.07 401.77" fill="#E0E0E0"/>
<path d="M603.14 325.7C603.08 325.71 602.86 324.95 602.51 323.55C602.16 322.16 601.71 320.12 601.2 317.6C600.17 312.56 598.99 305.56 597.72 297.83C596.45 290.1 595.17 283.13 594.07 278.12C593.53 275.61 593.07 273.59 592.73 272.2C592.4 270.8 592.25 270.02 592.31 270C592.37 269.98 592.64 270.73 593.08 272.1C593.53 273.47 594.09 275.47 594.71 277.97C595.98 282.96 597.37 289.93 598.65 297.67C599.89 305.3 601.01 312.2 601.86 317.47C602.26 319.85 602.6 321.85 602.87 323.46C603.1 324.89 603.2 325.69 603.14 325.7Z" fill="#E0E0E0"/>
<path d="M668 309.48C668.01 309.54 667.08 309.71 665.4 309.95C663.73 310.2 661.3 310.55 658.32 311.08C652.35 312.09 644.15 313.78 635.19 316.03C626.23 318.3 618.21 320.7 612.46 322.61C609.58 323.54 607.26 324.36 605.66 324.91C604.06 325.47 603.16 325.75 603.14 325.69C603.12 325.63 603.97 325.23 605.53 324.56C607.1 323.9 609.38 322.98 612.25 321.97C617.96 319.9 625.98 317.39 634.97 315.11C643.96 312.85 652.21 311.26 658.22 310.42C661.22 309.97 663.67 309.72 665.36 309.59C667.05 309.46 667.99 309.41 668 309.48Z" fill="#E0E0E0"/>
<path d="M578.96 400.32C578.93 400.34 578.76 400.07 578.46 399.55C578.12 398.93 577.7 398.17 577.19 397.24C576.1 395.23 574.6 392.29 572.79 388.62C569.17 381.3 564.49 371.02 559.48 359.61C554.47 348.2 549.89 337.89 546.43 330.5C544.74 326.91 543.34 323.95 542.31 321.76C541.87 320.81 541.5 320.02 541.2 319.37C540.96 318.82 540.84 318.52 540.87 318.51C540.9 318.5 541.07 318.76 541.37 319.28C541.71 319.9 542.13 320.66 542.63 321.58C543.72 323.59 545.22 326.53 547.03 330.2C550.65 337.52 555.33 347.8 560.34 359.21C565.35 370.62 569.93 380.92 573.39 388.31C575.09 391.9 576.48 394.85 577.51 397.05C577.95 398 578.32 398.79 578.62 399.44C578.87 400.01 578.99 400.31 578.96 400.32Z" fill="#E0E0E0"/>
<path d="M664.44 366.97C664.45 367 664.16 367.14 663.6 367.38C662.93 367.65 662.11 367.98 661.12 368.38C658.83 369.28 655.73 370.49 651.97 371.97C644.24 375 633.62 379.31 621.88 384.09C610.14 388.87 599.47 393.09 591.67 395.96C587.77 397.4 584.61 398.53 582.41 399.27C581.39 399.6 580.55 399.88 579.87 400.1C579.29 400.28 578.97 400.36 578.96 400.33C578.95 400.3 579.24 400.16 579.8 399.92C580.47 399.65 581.29 399.32 582.28 398.92C584.57 398.02 587.67 396.81 591.43 395.33C599.16 392.3 609.78 387.99 621.52 383.21C633.25 378.43 643.93 374.21 651.72 371.34C655.62 369.9 658.78 368.77 660.98 368.03C662 367.7 662.84 367.42 663.52 367.2C664.11 367.02 664.43 366.94 664.44 366.97Z" fill="#E0E0E0"/>
<path d="M691.77 446.67C691.77 446.81 536.9 446.93 345.9 446.93C154.84 446.93 0 446.81 0 446.67C0 446.53 154.84 446.41 345.9 446.41C536.9 446.41 691.77 446.53 691.77 446.67Z" fill="#263238"/>
<path d="M581.87 440.86H112.85C104.8 440.86 98.28 434.34 98.28 426.29V126C98.28 117.95 104.8 111.43 112.85 111.43H581.87C589.92 111.43 596.44 117.95 596.44 126V426.29C596.44 434.33 589.92 440.86 581.87 440.86Z" fill="#455A64"/>
<path d="M600.73 448.4H96.62C86.79 448.4 78.82 440.43 78.82 430.6V419.57H618.53V430.6C618.53 440.44 610.56 448.4 600.73 448.4Z" fill="#455A64"/>
<path d="M581.68 124.52H111.66V402.71H581.68V124.52Z" fill="#263238"/>
<path d="M298.26 416.49L304.95 427.14H399.19L405.41 416.49H298.26Z" fill="#263238"/>
<path d="M569.69 401.82H124.61C122.8 401.82 121.34 400.35 121.34 398.55V137.21C121.34 135.4 122.81 133.94 124.61 133.94H569.69C571.5 133.94 572.96 135.41 572.96 137.21V398.55C572.96 400.36 571.5 401.82 569.69 401.82Z" fill="#EBEBEB"/>
<path d="M572.96 403.18H121.14L121.97 154.93H572.96V403.18Z" fill="white"/>
<path d="M159.18 144.28C159.18 146.27 157.57 147.89 155.57 147.89C153.58 147.89 151.96 146.28 151.96 144.28C151.96 142.29 153.57 140.67 155.57 140.67C157.56 140.68 159.18 142.29 159.18 144.28Z" fill="#263238"/>
<path d="M137.32 144.28C137.32 146.27 135.71 147.89 133.71 147.89C131.72 147.89 130.1 146.28 130.1 144.28C130.1 142.29 131.72 140.67 133.71 140.67C135.7 140.68 137.32 142.29 137.32 144.28Z" fill="#263238"/>
<path d="M148.25 144.28C148.25 146.27 146.64 147.89 144.64 147.89C142.65 147.89 141.03 146.28 141.03 144.28C141.03 142.29 142.64 140.67 144.64 140.67C146.63 140.68 148.25 142.29 148.25 144.28Z" fill="#263238"/>
<path d="M576.01 416.57C576.01 416.75 473.01 416.9 345.97 416.9C218.89 416.9 115.91 416.75 115.91 416.57C115.91 416.39 218.89 416.25 345.97 416.25C473.01 416.25 576.01 416.39 576.01 416.57Z" fill="#263238"/>
<path d="M573.04 358.11H121.34V403.04H573.04V358.11Z" fill="#7761FF"/>
<path opacity="0.7" d="M573.04 358.11H121.34V403.04H573.04V358.11Z" fill="white"/>
<path d="M411.653 383.427C413.136 374.335 406.968 365.761 397.875 364.278C388.783 362.795 380.21 368.964 378.726 378.056C377.243 387.148 383.412 395.721 392.504 397.205C401.597 398.688 410.17 392.519 411.653 383.427Z" fill="#7761FF"/>
<path d="M395.18 384.51C393.52 384.51 392.17 383.16 392.17 381.5V374.95C392.17 373.29 393.52 371.94 395.18 371.94C396.84 371.94 398.19 373.29 398.19 374.95V381.5C398.19 383.16 396.84 384.51 395.18 384.51ZM395.18 372.57C393.87 372.57 392.8 373.64 392.8 374.95V381.5C392.8 382.81 393.87 383.88 395.18 383.88C396.49 383.88 397.56 382.81 397.56 381.5V374.95C397.56 373.64 396.49 372.57 395.18 372.57Z" fill="white"/>
<path d="M395.18 386.62C393.38 386.62 391.96 386.06 390.96 384.95C389.04 382.83 389.35 379.51 389.37 379.37C389.39 379.2 389.55 379.06 389.71 379.09C389.88 379.11 390.01 379.26 389.99 379.43C389.99 379.46 389.7 382.62 391.43 384.53C392.31 385.5 393.57 385.99 395.18 385.99C396.77 385.99 398.05 385.5 398.98 384.53C400.82 382.61 400.71 379.44 400.71 379.41C400.7 379.24 400.84 379.09 401.01 379.08C401.19 379.1 401.33 379.21 401.34 379.38C401.34 379.52 401.46 382.85 399.43 384.96C398.39 386.07 396.96 386.62 395.18 386.62Z" fill="white"/>
<path d="M395.18 391.23C395.01 391.23 394.86 391.09 394.86 390.91V386.3C394.86 386.13 395 385.99 395.18 385.99C395.35 385.99 395.49 386.13 395.49 386.3V390.91C395.5 391.09 395.36 391.23 395.18 391.23Z" fill="white"/>
<path d="M323.064 383.43C324.547 374.338 318.378 365.765 309.286 364.282C300.194 362.798 291.621 368.967 290.137 378.059C288.654 387.152 294.823 395.725 303.915 397.208C313.007 398.691 321.581 392.523 323.064 383.43Z" fill="#7761FF"/>
<path d="M301.3 382.41C300.39 382.41 299.66 381.67 299.66 380.77C299.66 379.86 300.4 379.13 301.3 379.13C302.21 379.13 302.94 379.87 302.94 380.77C302.94 381.67 302.2 382.41 301.3 382.41Z" fill="white"/>
<path d="M306.41 382.41C305.5 382.41 304.77 381.67 304.77 380.77C304.77 379.86 305.51 379.13 306.41 379.13C307.32 379.13 308.05 379.87 308.05 380.77C308.06 381.67 307.32 382.41 306.41 382.41Z" fill="white"/>
<path d="M311.89 382.41C310.98 382.41 310.25 381.67 310.25 380.77C310.25 379.86 310.99 379.13 311.89 379.13C312.79 379.13 313.53 379.87 313.53 380.77C313.53 381.67 312.8 382.41 311.89 382.41Z" fill="white"/>
<path d="M350.89 397.16C359.947 397.16 367.29 389.818 367.29 380.76C367.29 371.703 359.947 364.36 350.89 364.36C341.833 364.36 334.49 371.703 334.49 380.76C334.49 389.818 341.833 397.16 350.89 397.16Z" fill="#7761FF"/>
<path d="M349.43 376.23C348.05 375.16 345.95 375.55 345.19 377.09C344.86 377.76 344.85 378.5 345.58 379.22C347.09 380.7 350.25 383.67 351.63 384.95C352.37 385.65 353.41 386.02 354.44 385.86C355.12 385.76 355.85 385.43 356.43 384.63C357.98 382.5 354.26 380.84 354.26 380.84L352.63 382.55L348.84 378.89L350.5 377.06L349.43 376.23Z" fill="white"/>
<path d="M541.52 198.27C532.13 198.27 524.53 190.66 524.53 181.28C524.53 171.89 532.14 164.29 541.52 164.29C550.91 164.29 558.51 171.9 558.51 181.28C558.51 190.66 550.9 198.27 541.52 198.27Z" fill="#EBEBEB"/>
<path d="M540.93 181.4C542.04 181.06 542.84 180.03 542.84 178.81C542.84 177.31 541.63 176.1 540.13 176.1C538.63 176.1 537.42 177.31 537.42 178.81C537.42 180.01 538.2 181.03 539.28 181.38C537.03 181.75 535.32 183.69 535.32 186.04H544.77C544.77 183.73 543.12 181.81 540.93 181.4Z" fill="#263238"/>
<path d="M546.22 182.2C546 182.2 545.83 182.03 545.83 181.81V177.46C545.83 177.24 546 177.07 546.22 177.07C546.44 177.07 546.61 177.24 546.61 177.46V181.81C546.62 182.03 546.44 182.2 546.22 182.2Z" fill="#263238"/>
<path d="M548.4 180.03H544.05C543.83 180.03 543.66 179.86 543.66 179.64C543.66 179.42 543.83 179.25 544.05 179.25H548.4C548.62 179.25 548.79 179.42 548.79 179.64C548.79 179.85 548.62 180.03 548.4 180.03Z" fill="#263238"/>
<path d="M230.21 403.12L121.34 402.6V154.86H230.21V403.12Z" fill="#FAFAFA"/>
<path d="M230.21 401.11C230.07 401.11 229.95 345.98 229.95 277.99C229.95 209.98 230.07 154.86 230.21 154.86C230.35 154.86 230.47 209.98 230.47 277.99C230.47 345.98 230.36 401.11 230.21 401.11Z" fill="#263238"/>
<path d="M226.86 355.48C226.86 355.62 203.69 355.74 175.11 355.74C146.52 355.74 123.36 355.62 123.36 355.48C123.36 355.34 146.53 355.22 175.11 355.22C203.69 355.22 226.86 355.33 226.86 355.48Z" fill="#E0E0E0"/>
<path d="M202.91 219.23V221.66H202.66V219.45H202.09V219.23H202.91Z" fill="#E0E0E0"/>
<path d="M204.16 219.23V221.66H203.91V219.45H203.34V219.23H204.16Z" fill="#E0E0E0"/>
<path d="M204.74 220C204.74 219.89 204.82 219.81 204.92 219.81C205.02 219.81 205.11 219.89 205.11 220C205.11 220.11 205.02 220.19 204.92 220.19C204.82 220.2 204.74 220.11 204.74 220ZM204.74 221.48C204.74 221.37 204.82 221.29 204.92 221.29C205.02 221.29 205.11 221.37 205.11 221.48C205.11 221.59 205.02 221.67 204.92 221.67C204.82 221.67 204.74 221.59 204.74 221.48Z" fill="#E0E0E0"/>
<path d="M207.13 221.43V221.65H205.43V221.47L206.44 220.48C206.71 220.21 206.77 220.05 206.77 219.88C206.77 219.6 206.57 219.43 206.2 219.43C205.92 219.43 205.7 219.52 205.54 219.7L205.36 219.55C205.55 219.33 205.85 219.2 206.22 219.2C206.71 219.2 207.02 219.45 207.02 219.86C207.02 220.09 206.95 220.3 206.62 220.62L205.79 221.43H207.13Z" fill="#E0E0E0"/>
<path d="M209.09 220.94C209.09 221.35 208.8 221.68 208.21 221.68C207.86 221.68 207.53 221.56 207.34 221.37L207.46 221.17C207.62 221.33 207.89 221.45 208.21 221.45C208.62 221.45 208.84 221.25 208.84 220.95C208.84 220.64 208.65 220.44 208.03 220.44H207.51L207.63 219.22H208.96V219.44H207.85L207.77 220.21H208.08C208.81 220.22 209.09 220.51 209.09 220.94Z" fill="#E0E0E0"/>
<path d="M205.38 332.35V334.78H205.13V332.57H204.56V332.35H205.38Z" fill="#E0E0E0"/>
<path d="M206.63 332.35V334.78H206.38V332.57H205.81V332.35H206.63Z" fill="#E0E0E0"/>
<path d="M207.21 333.13C207.21 333.02 207.29 332.94 207.39 332.94C207.49 332.94 207.58 333.02 207.58 333.13C207.58 333.24 207.49 333.32 207.39 333.32C207.29 333.32 207.21 333.24 207.21 333.13ZM207.21 334.61C207.21 334.5 207.29 334.42 207.39 334.42C207.49 334.42 207.58 334.5 207.58 334.61C207.58 334.72 207.49 334.8 207.39 334.8C207.29 334.8 207.21 334.71 207.21 334.61Z" fill="#E0E0E0"/>
<path d="M210.01 334.14H209.52V334.78H209.27V334.14H207.9V333.96L209.19 332.35H209.47L208.23 333.92H209.28V333.36H209.52V333.92H210.01V334.14Z" fill="#E0E0E0"/>
<path d="M211.87 334.06C211.87 334.47 211.58 334.8 210.99 334.8C210.64 334.8 210.31 334.68 210.12 334.49L210.24 334.29C210.4 334.45 210.67 334.57 210.99 334.57C211.4 334.57 211.62 334.37 211.62 334.07C211.62 333.76 211.43 333.56 210.81 333.56H210.29L210.41 332.34H211.74V332.56H210.63L210.55 333.33H210.86C211.59 333.35 211.87 333.63 211.87 334.06Z" fill="#E0E0E0"/>
<path d="M189.96 214.1H141.4L141.26 192.97C141.18 181.17 150.73 171.56 162.53 171.56H189.97C201.72 171.56 211.24 181.08 211.24 192.83C211.23 204.58 201.71 214.1 189.96 214.1Z" fill="#EBEBEB"/>
<path d="M212.68 392.06H135.66C130.47 392.06 126.24 387.83 126.24 382.64V382.23C126.24 377.04 130.47 372.81 135.66 372.81H212.68C217.87 372.81 222.1 377.04 222.1 382.23V382.64C222.1 387.84 217.88 392.06 212.68 392.06ZM135.67 373.4C130.8 373.4 126.84 377.36 126.84 382.23V382.64C126.84 387.51 130.8 391.47 135.67 391.47H212.69C217.56 391.47 221.52 387.51 221.52 382.64V382.23C221.52 377.36 217.56 373.4 212.69 373.4H135.67Z" fill="#E0E0E0"/>
<path d="M217.94 382.14C217.94 384.78 215.8 386.93 213.15 386.93C210.51 386.93 208.36 384.79 208.36 382.14C208.36 379.5 210.5 377.35 213.15 377.35C215.79 377.36 217.94 379.5 217.94 382.14Z" fill="#7761FF"/>
<path d="M213.02 385.1H213.01C212.95 385.1 212.89 385.05 212.88 384.99L212.27 382.72L210.14 381.97C210.08 381.95 210.04 381.89 210.04 381.83C210.04 381.77 210.08 381.71 210.14 381.69L215.14 379.9C215.2 379.88 215.26 379.9 215.3 379.94C215.34 379.98 215.35 380.05 215.33 380.1L213.16 385C213.14 385.07 213.08 385.1 213.02 385.1ZM210.63 381.84L212.44 382.48C212.49 382.5 212.52 382.53 212.53 382.58L213.05 384.52L214.91 380.31L210.63 381.84Z" fill="white"/>
<path d="M212.39 382.76C212.35 382.76 212.31 382.74 212.28 382.71C212.23 382.65 212.23 382.56 212.29 382.5L215.09 379.94C215.15 379.89 215.24 379.89 215.3 379.95C215.35 380.01 215.35 380.1 215.29 380.16L212.49 382.72C212.46 382.75 212.43 382.76 212.39 382.76Z" fill="white"/>
<path d="M148.33 380.84H147.4V380.6H149.53V380.84H148.6V383.23H148.32V380.84H148.33Z" fill="#263238"/>
<path d="M151.45 381.26L150.46 383.47C150.29 383.86 150.08 383.98 149.8 383.98C149.62 383.98 149.44 383.92 149.32 383.8L149.44 383.6C149.54 383.7 149.66 383.75 149.8 383.75C149.98 383.75 150.1 383.67 150.21 383.42L150.3 383.23L149.42 381.26H149.7L150.44 382.94L151.18 381.26H151.45Z" fill="#263238"/>
<path d="M153.84 382.25C153.84 382.85 153.42 383.26 152.85 383.26C152.53 383.26 152.26 383.12 152.1 382.87V383.97H151.83V381.26H152.09V381.65C152.25 381.39 152.53 381.24 152.85 381.24C153.41 381.24 153.84 381.65 153.84 382.25ZM153.57 382.25C153.57 381.79 153.25 381.48 152.83 381.48C152.41 381.48 152.09 381.79 152.09 382.25C152.09 382.71 152.41 383.02 152.83 383.02C153.25 383.02 153.57 382.71 153.57 382.25Z" fill="#263238"/>
<path d="M156.1 382.33H154.45C154.48 382.74 154.8 383.02 155.23 383.02C155.47 383.02 155.69 382.93 155.84 382.76L155.99 382.93C155.81 383.14 155.54 383.25 155.23 383.25C154.61 383.25 154.19 382.83 154.19 382.24C154.19 381.65 154.6 381.24 155.16 381.24C155.72 381.24 156.12 381.65 156.12 382.24C156.11 382.27 156.1 382.3 156.1 382.33ZM154.45 382.13H155.85C155.82 381.74 155.53 381.47 155.15 381.47C154.76 381.47 154.48 381.74 154.45 382.13Z" fill="#263238"/>
<path d="M159.13 382.01V383.24H158.87V382.93C158.75 383.13 158.52 383.26 158.19 383.26C157.74 383.26 157.47 383.03 157.47 382.68C157.47 382.38 157.67 382.12 158.23 382.12H158.86V382C158.86 381.66 158.67 381.48 158.3 381.48C158.04 381.48 157.8 381.57 157.64 381.71L157.52 381.51C157.72 381.34 158.01 381.24 158.32 381.24C158.84 381.24 159.13 381.5 159.13 382.01ZM158.86 382.64V382.32H158.24C157.86 382.32 157.73 382.47 157.73 382.67C157.73 382.9 157.91 383.04 158.23 383.04C158.54 383.04 158.76 382.9 158.86 382.64Z" fill="#263238"/>
<path d="M164.11 382.09V383.24H163.84V382.12C163.84 381.7 163.63 381.49 163.27 381.49C162.86 381.49 162.61 381.75 162.61 382.2V383.24H162.34V382.12C162.34 381.7 162.13 381.49 161.77 381.49C161.37 381.49 161.11 381.75 161.11 382.2V383.24H160.84V381.26H161.1V381.62C161.24 381.38 161.49 381.24 161.83 381.24C162.16 381.24 162.41 381.38 162.53 381.66C162.67 381.4 162.95 381.24 163.31 381.24C163.79 381.24 164.11 381.52 164.11 382.09Z" fill="#263238"/>
<path d="M166.56 382.33H164.91C164.94 382.74 165.26 383.02 165.69 383.02C165.93 383.02 166.15 382.93 166.3 382.76L166.45 382.93C166.27 383.14 166 383.25 165.69 383.25C165.07 383.25 164.65 382.83 164.65 382.24C164.65 381.65 165.06 381.24 165.62 381.24C166.18 381.24 166.58 381.65 166.58 382.24C166.57 382.27 166.56 382.3 166.56 382.33ZM164.91 382.13H166.31C166.28 381.74 165.99 381.47 165.61 381.47C165.22 381.47 164.94 381.74 164.91 382.13Z" fill="#263238"/>
<path d="M166.84 383.01L166.96 382.8C167.12 382.92 167.38 383.02 167.66 383.02C168.04 383.02 168.19 382.89 168.19 382.7C168.19 382.18 166.91 382.59 166.91 381.81C166.91 381.49 167.19 381.25 167.69 381.25C167.95 381.25 168.22 381.32 168.39 381.43L168.27 381.64C168.1 381.52 167.89 381.47 167.69 381.47C167.33 381.47 167.17 381.61 167.17 381.8C167.17 382.33 168.45 381.93 168.45 382.69C168.45 383.03 168.15 383.25 167.63 383.25C167.32 383.25 167 383.15 166.84 383.01Z" fill="#263238"/>
<path d="M168.68 383.01L168.8 382.8C168.96 382.92 169.22 383.02 169.5 383.02C169.88 383.02 170.03 382.89 170.03 382.7C170.03 382.18 168.75 382.59 168.75 381.81C168.75 381.49 169.03 381.25 169.53 381.25C169.79 381.25 170.06 381.32 170.23 381.43L170.11 381.64C169.94 381.52 169.73 381.47 169.53 381.47C169.17 381.47 169.01 381.61 169.01 381.8C169.01 382.33 170.29 381.93 170.29 382.69C170.29 383.03 169.99 383.25 169.47 383.25C169.15 383.25 168.84 383.15 168.68 383.01Z" fill="#263238"/>
<path d="M172.28 382.01V383.24H172.02V382.93C171.9 383.13 171.67 383.26 171.34 383.26C170.89 383.26 170.62 383.03 170.62 382.68C170.62 382.38 170.82 382.12 171.38 382.12H172.01V382C172.01 381.66 171.82 381.48 171.45 381.48C171.19 381.48 170.95 381.57 170.79 381.71L170.67 381.51C170.87 381.34 171.16 381.24 171.47 381.24C171.99 381.24 172.28 381.5 172.28 382.01ZM172.02 382.64V382.32H171.4C171.02 382.32 170.89 382.47 170.89 382.67C170.89 382.9 171.07 383.04 171.39 383.04C171.69 383.04 171.91 382.9 172.02 382.64Z" fill="#263238"/>
<path d="M174.85 381.26V383C174.85 383.68 174.52 383.99 173.86 383.99C173.5 383.99 173.15 383.88 172.94 383.69L173.08 383.49C173.27 383.66 173.55 383.76 173.86 383.76C174.36 383.76 174.59 383.53 174.59 383.04V382.79C174.42 383.04 174.14 383.17 173.82 383.17C173.26 383.17 172.83 382.78 172.83 382.21C172.83 381.64 173.26 381.26 173.82 381.26C174.15 381.26 174.44 381.4 174.6 381.65V381.27H174.85V381.26ZM174.59 382.2C174.59 381.77 174.27 381.48 173.84 381.48C173.4 381.48 173.09 381.77 173.09 382.2C173.09 382.63 173.4 382.93 173.84 382.93C174.27 382.92 174.59 382.63 174.59 382.2Z" fill="#263238"/>
<path d="M177.32 382.33H175.67C175.7 382.74 176.02 383.02 176.45 383.02C176.69 383.02 176.91 382.93 177.06 382.76L177.21 382.93C177.03 383.14 176.76 383.25 176.45 383.25C175.83 383.25 175.41 382.83 175.41 382.24C175.41 381.65 175.82 381.24 176.38 381.24C176.94 381.24 177.34 381.65 177.34 382.24C177.32 382.27 177.32 382.3 177.32 382.33ZM175.66 382.13H177.06C177.03 381.74 176.74 381.47 176.36 381.47C175.98 381.47 175.7 381.74 175.66 382.13Z" fill="#263238"/>
<path d="M177.69 383.05C177.69 382.93 177.78 382.85 177.89 382.85C178 382.85 178.09 382.94 178.09 383.05C178.09 383.17 178 383.26 177.89 383.26C177.79 383.25 177.69 383.16 177.69 383.05Z" fill="#263238"/>
<path d="M178.49 383.05C178.49 382.93 178.58 382.85 178.69 382.85C178.8 382.85 178.89 382.94 178.89 383.05C178.89 383.17 178.8 383.26 178.69 383.26C178.58 383.25 178.49 383.16 178.49 383.05Z" fill="#263238"/>
<path d="M179.29 383.05C179.29 382.93 179.38 382.85 179.49 382.85C179.6 382.85 179.69 382.94 179.69 383.05C179.69 383.17 179.6 383.26 179.49 383.26C179.38 383.25 179.29 383.16 179.29 383.05Z" fill="#263238"/>
<path d="M135.62 384.08C135.25 384.52 134.59 384.58 134.15 384.21C133.71 383.84 133.65 383.18 134.02 382.74L136.18 380.15C136.42 379.86 136.84 379.83 137.13 380.06C137.42 380.3 137.45 380.72 137.22 381.01L135.39 383.2C135.25 383.3 135.05 383.31 134.91 383.19C134.77 383.07 134.74 382.88 134.82 382.72L136.23 381.03L136.04 380.87L134.7 382.48L134.63 382.56L134.64 382.57C134.48 382.84 134.53 383.18 134.77 383.38C135.01 383.58 135.36 383.56 135.59 383.36L135.63 383.32C135.64 383.31 135.65 383.3 135.66 383.29L137.44 381.15C137.74 380.76 137.69 380.19 137.3 379.87C136.92 379.55 136.35 379.6 136.02 379.97L133.77 382.67C133.39 383.21 133.49 383.97 134.01 384.4C134.53 384.83 135.28 384.79 135.75 384.32L137.56 382.14L137.37 381.98L135.62 384.08Z" fill="#E0E0E0"/>
<path d="M195.99 183.23C195.99 183.32 186.81 183.39 175.49 183.39C164.17 183.39 154.99 183.32 154.99 183.23C154.99 183.14 164.17 183.07 175.49 183.07C186.81 183.07 195.99 183.14 195.99 183.23Z" fill="#263238"/>
<path d="M195.99 188.3C195.99 188.39 186.81 188.46 175.49 188.46C164.17 188.46 154.99 188.39 154.99 188.3C154.99 188.21 164.17 188.14 175.49 188.14C186.81 188.14 195.99 188.21 195.99 188.3Z" fill="#263238"/>
<path d="M195.99 193.37C195.99 193.46 186.81 193.53 175.49 193.53C164.17 193.53 154.99 193.46 154.99 193.37C154.99 193.28 164.17 193.21 175.49 193.21C186.81 193.21 195.99 193.28 195.99 193.37Z" fill="#263238"/>
<path d="M195.99 198.44C195.99 198.53 186.81 198.6 175.49 198.6C164.17 198.6 154.99 198.53 154.99 198.44C154.99 198.35 164.17 198.28 175.49 198.28C186.81 198.28 195.99 198.35 195.99 198.44Z" fill="#263238"/>
<path d="M175.56 203.51C175.56 203.53 175.27 203.55 174.75 203.57C174.16 203.58 173.43 203.6 172.55 203.62C170.69 203.65 168.12 203.67 165.28 203.67C162.44 203.67 159.87 203.65 158.01 203.62C157.13 203.6 156.39 203.58 155.81 203.57C155.29 203.55 155 203.53 155 203.51C155 203.49 155.29 203.47 155.81 203.45C156.4 203.44 157.13 203.42 158.01 203.4C159.87 203.37 162.44 203.35 165.28 203.35C168.12 203.35 170.69 203.37 172.55 203.4C173.43 203.42 174.17 203.44 174.75 203.45C175.28 203.47 175.56 203.49 175.56 203.51Z" fill="#263238"/>
<path d="M182.19 252.81H141.26V240.59C141.26 234.58 146.13 229.71 152.14 229.71H182.19C188.2 229.71 193.07 234.58 193.07 240.59V241.92C193.08 247.94 188.2 252.81 182.19 252.81Z" fill="#EBEBEB"/>
<path d="M185.2 238.49C185.2 238.58 177.13 238.65 167.17 238.65C157.21 238.65 149.14 238.58 149.14 238.49C149.14 238.4 157.21 238.33 167.17 238.33C177.13 238.32 185.2 238.4 185.2 238.49Z" fill="#263238"/>
<path d="M171.16 244.11C171.16 244.13 170.85 244.15 170.29 244.17C169.67 244.18 168.88 244.2 167.93 244.22C165.94 244.25 163.18 244.27 160.14 244.27C157.1 244.27 154.35 244.25 152.35 244.22C151.4 244.2 150.61 244.18 149.99 244.17C149.43 244.15 149.12 244.13 149.12 244.11C149.12 244.09 149.43 244.07 149.99 244.05C150.61 244.04 151.4 244.02 152.35 244C154.34 243.97 157.1 243.95 160.14 243.95C163.18 243.95 165.93 243.97 167.93 244C168.88 244.02 169.67 244.04 170.29 244.05C170.85 244.07 171.16 244.09 171.16 244.11Z" fill="#263238"/>
<path d="M143.43 302.14V304.57H143.18V302.36H142.61V302.14H143.43Z" fill="#E0E0E0"/>
<path d="M144.69 302.14V304.57H144.44V302.36H143.87V302.14H144.69Z" fill="#E0E0E0"/>
<path d="M145.27 302.92C145.27 302.81 145.35 302.73 145.45 302.73C145.55 302.73 145.64 302.81 145.64 302.92C145.64 303.03 145.55 303.11 145.45 303.11C145.35 303.11 145.27 303.03 145.27 302.92ZM145.27 304.4C145.27 304.29 145.35 304.21 145.45 304.21C145.55 304.21 145.64 304.29 145.64 304.4C145.64 304.51 145.55 304.59 145.45 304.59C145.35 304.59 145.27 304.51 145.27 304.4Z" fill="#E0E0E0"/>
<path d="M147.6 303.87C147.6 304.28 147.31 304.59 146.72 304.59C146.37 304.59 146.03 304.47 145.85 304.28L145.97 304.08C146.13 304.24 146.41 304.36 146.72 304.36C147.12 304.36 147.34 304.17 147.34 303.87C147.34 303.58 147.14 303.39 146.68 303.39H146.51V303.21L147.18 302.37H145.94V302.15H147.5V302.33L146.81 303.19C147.34 303.21 147.6 303.49 147.6 303.87Z" fill="#E0E0E0"/>
<path d="M147.95 303.36C147.95 302.59 148.36 302.13 148.92 302.13C149.48 302.13 149.89 302.59 149.89 303.36C149.89 304.13 149.48 304.6 148.92 304.6C148.36 304.59 147.95 304.13 147.95 303.36ZM149.64 303.36C149.64 302.71 149.35 302.35 148.93 302.35C148.51 302.35 148.22 302.71 148.22 303.36C148.22 304.01 148.51 304.37 148.93 304.37C149.34 304.36 149.64 304.01 149.64 303.36Z" fill="#E0E0E0"/>
<path d="M150.1 295.94H213.28V283.72C213.28 277.71 208.41 272.84 202.4 272.84H150.1C144.09 272.84 139.22 277.71 139.22 283.72V285.05C139.22 291.06 144.09 295.94 150.1 295.94Z" fill="#EBEBEB"/>
<path d="M201.28 281.37C201.28 281.46 189.9 281.53 175.86 281.53C161.82 281.53 150.44 281.46 150.44 281.37C150.44 281.28 161.82 281.21 175.86 281.21C189.89 281.21 201.28 281.28 201.28 281.37Z" fill="#263238"/>
<path d="M201.28 286.85C201.28 286.94 189.9 287.01 175.86 287.01C161.82 287.01 150.44 286.94 150.44 286.85C150.44 286.76 161.82 286.69 175.86 286.69C189.89 286.69 201.28 286.76 201.28 286.85Z" fill="#263238"/>
<path d="M180.3 339.06H139.37V326.85C139.37 320.84 144.24 315.97 150.25 315.97H180.3C186.31 315.97 191.18 320.84 191.18 326.85V328.18C191.18 334.19 186.31 339.06 180.3 339.06Z" fill="#EBEBEB"/>
<path d="M184.35 324.36C184.35 324.45 175.81 324.52 165.28 324.52C154.74 324.52 146.21 324.45 146.21 324.36C146.21 324.27 154.75 324.2 165.28 324.2C175.81 324.2 184.35 324.27 184.35 324.36Z" fill="#263238"/>
<path d="M170.74 329.85C170.74 329.87 170.4 329.89 169.78 329.91C169.1 329.92 168.22 329.94 167.15 329.96C164.93 329.99 161.86 330.01 158.48 330.01C155.09 330.01 152.03 329.99 149.81 329.96C148.74 329.94 147.86 329.92 147.18 329.91C146.56 329.89 146.22 329.87 146.22 329.85C146.22 329.83 146.56 329.81 147.18 329.79C147.86 329.78 148.74 329.76 149.81 329.74C152.03 329.71 155.1 329.69 158.48 329.69C161.87 329.69 164.93 329.71 167.15 329.74C168.22 329.76 169.1 329.78 169.78 329.79C170.39 329.8 170.74 329.82 170.74 329.85Z" fill="#263238"/>
<path d="M688.38 158.28C687.28 149.38 679.74 141.07 670.77 141.07C665.47 141.07 660.43 143.84 656.81 147.71C655.23 149.4 654.14 150.64 653.27 151.91C652.67 150.49 651.85 149.07 650.63 147.1C647.84 142.59 643.45 138.89 638.25 137.85C629.45 136.09 620.43 142.75 617.6 151.26C614.76 159.77 617.13 169.33 621.79 176.99C626.45 184.65 634.48 194.67 649.28 199.65C659.48 198.34 673.14 189.3 679.22 182.7C685.29 176.09 689.48 167.18 688.38 158.28Z" fill="#7761FF"/>
<path d="M685.15 174.27C685.15 174.28 685.05 174.28 684.85 174.27C684.62 174.26 684.33 174.24 683.98 174.21C683.17 174.14 682.06 174.05 680.66 173.94C677.73 173.67 673.57 173.29 668.46 172.82L668.68 172.69C667.21 176.53 665.49 181.02 663.6 185.94L663.29 186.74L663.09 185.91C661.54 179.48 659.81 172.27 657.98 164.68C657.42 162.33 656.86 160.02 656.32 157.76L656.84 157.86C653.52 162.42 650.39 166.73 647.53 170.67L647.44 170.79L647.29 170.77C638.52 169.85 631.12 169.08 625.85 168.53C623.28 168.24 621.24 168.01 619.78 167.85C619.11 167.77 618.58 167.7 618.18 167.65C617.82 167.6 617.63 167.57 617.63 167.55C617.63 167.54 617.82 167.54 618.19 167.56C618.6 167.59 619.13 167.63 619.8 167.68C621.26 167.81 623.31 167.99 625.88 168.21C631.15 168.71 638.56 169.41 647.34 170.24L647.1 170.35C649.95 166.41 653.07 162.08 656.37 157.51L656.74 157L656.89 157.61C657.43 159.87 657.99 162.18 658.55 164.53C660.36 172.13 662.08 179.34 663.61 185.77L663.1 185.74C665.03 180.83 666.78 176.35 668.28 172.52L668.34 172.37L668.5 172.39C673.61 172.94 677.76 173.38 680.68 173.7C682.08 173.86 683.18 173.99 683.99 174.09C684.34 174.14 684.62 174.17 684.85 174.21C685.05 174.24 685.15 174.26 685.15 174.27Z" fill="#FAFAFA"/>
<path d="M84.81 189.77C82.81 184.01 76.62 179.57 70.66 180.85C67.14 181.6 64.19 184.16 62.33 187.25C61.52 188.6 60.97 189.57 60.58 190.54C59.98 189.68 59.23 188.86 58.14 187.72C55.64 185.12 52.2 183.29 48.6 183.34C42.51 183.42 37.46 189.13 36.79 195.19C36.12 201.25 39.05 207.26 43.24 211.69C47.43 216.12 54.19 221.63 64.73 222.82C71.32 220.5 79.1 212.54 82.2 207.29C85.3 202.04 86.81 195.53 84.81 189.77Z" fill="#7761FF"/>
<path d="M84.94 200.86C84.94 200.87 84.87 200.88 84.74 200.9C84.58 200.92 84.39 200.95 84.16 200.99C83.61 201.06 82.86 201.16 81.92 201.28C79.93 201.52 77.12 201.86 73.65 202.28L73.78 202.16C73.35 204.92 72.85 208.15 72.29 211.69L72.2 212.26L71.95 211.74C70 207.69 67.82 203.15 65.53 198.37C64.82 196.89 64.12 195.43 63.44 194.01L63.8 194C62.25 197.5 60.78 200.82 59.44 203.83L59.4 203.92L59.3 203.93C53.34 204.57 48.32 205.12 44.74 205.5C42.99 205.68 41.6 205.82 40.61 205.92C40.16 205.96 39.79 205.99 39.52 206.02C39.27 206.04 39.14 206.04 39.14 206.03C39.14 206.02 39.27 206 39.51 205.96C39.79 205.92 40.15 205.87 40.6 205.81C41.59 205.69 42.97 205.51 44.72 205.29C48.29 204.87 53.31 204.28 59.26 203.58L59.12 203.69C60.45 200.67 61.91 197.35 63.45 193.84L63.62 193.45L63.81 193.84C64.49 195.26 65.19 196.72 65.9 198.2C68.19 202.99 70.36 207.53 72.29 211.59L71.95 211.64C72.53 208.1 73.06 204.88 73.51 202.12L73.53 202.01L73.64 202C77.11 201.64 79.93 201.34 81.92 201.13C82.87 201.04 83.63 200.97 84.17 200.91C84.41 200.89 84.6 200.88 84.76 200.86C84.87 200.85 84.94 200.85 84.94 200.86Z" fill="#FAFAFA"/>
<path d="M444.38 73.9399H443.42C441.52 73.9399 439.98 72.3999 439.98 70.4999V32.4999C439.98 30.5999 441.52 29.0599 443.42 29.0599H444.38C446.28 29.0599 447.82 30.5999 447.82 32.4999V70.4999C447.82 72.3999 446.28 73.9399 444.38 73.9399Z" fill="#E0E0E0"/>
<path d="M444.38 73.94H443.42C441.52 73.94 439.98 72.4 439.98 70.5V45.91C439.98 44.01 441.52 42.47 443.42 42.47H444.38C446.28 42.47 447.82 44.01 447.82 45.91V70.5C447.82 72.4 446.28 73.94 444.38 73.94Z" fill="#7761FF"/>
<path d="M457.23 73.9399H456.27C454.37 73.9399 452.83 72.3999 452.83 70.4999V32.4999C452.83 30.5999 454.37 29.0599 456.27 29.0599H457.23C459.13 29.0599 460.67 30.5999 460.67 32.4999V70.4999C460.67 72.3999 459.13 73.9399 457.23 73.9399Z" fill="#E0E0E0"/>
<path d="M457.23 73.9399H456.27C454.37 73.9399 452.83 72.3999 452.83 70.4999V52.8699C452.83 50.9699 454.37 49.4299 456.27 49.4299H457.23C459.13 49.4299 460.67 50.9699 460.67 52.8699V70.4999C460.67 72.3999 459.13 73.9399 457.23 73.9399Z" fill="#7761FF"/>
<path d="M471.76 73.9399H470.8C468.9 73.9399 467.36 72.3999 467.36 70.4999V32.4999C467.36 30.5999 468.9 29.0599 470.8 29.0599H471.76C473.66 29.0599 475.2 30.5999 475.2 32.4999V70.4999C475.2 72.3999 473.66 73.9399 471.76 73.9399Z" fill="#E0E0E0"/>
<path d="M471.76 73.9399H470.8C468.9 73.9399 467.36 72.3999 467.36 70.4999V40.5999C467.36 38.6999 468.9 37.1599 470.8 37.1599H471.76C473.66 37.1599 475.2 38.6999 475.2 40.5999V70.4899C475.2 72.3999 473.66 73.9399 471.76 73.9399Z" fill="#7761FF"/>
<path d="M444.02 73.9399C444.02 73.9099 444.37 73.9299 445 73.7599C445.61 73.5899 446.55 73.1399 447.18 72.0699C447.5 71.5499 447.71 70.8799 447.71 70.1399C447.7 69.3799 447.7 68.5499 447.69 67.6599C447.68 65.8799 447.67 63.8499 447.65 61.6199C447.64 57.1299 447.62 51.8099 447.6 45.8999C447.6 42.9399 447.59 39.8399 447.59 36.6199C447.59 35.8199 447.59 34.9999 447.59 34.1799C447.57 33.3499 447.66 32.5299 447.43 31.7899C446.98 30.2799 445.44 29.1799 443.8 29.2799C442.18 29.2599 440.69 30.4599 440.34 31.9899C440.16 32.7299 440.26 33.5799 440.23 34.3999C440.23 35.2199 440.23 36.0299 440.23 36.8399C440.23 40.0599 440.22 43.1599 440.22 46.1199C440.2 52.0299 440.18 57.3499 440.17 61.8399C440.16 64.0699 440.14 66.0999 440.13 67.8799C440.13 68.7699 440.11 69.5999 440.12 70.3499C440.15 71.0899 440.42 71.7399 440.76 72.2399C441.47 73.2599 442.42 73.6499 443.04 73.7999C443.66 73.9399 444.02 73.9099 444.02 73.9399C444.02 73.9399 443.67 74.0099 443.01 73.9099C442.37 73.7899 441.36 73.4199 440.59 72.3699C440.22 71.8499 439.93 71.1699 439.88 70.3799C439.85 69.5999 439.86 68.7899 439.85 67.8999C439.84 66.1199 439.83 64.0899 439.81 61.8599C439.8 57.3699 439.78 52.0499 439.76 46.1399C439.76 43.1799 439.75 40.0699 439.75 36.8599C439.75 36.0499 439.75 35.2399 439.75 34.4199C439.75 34.0099 439.75 33.5999 439.75 33.1899C439.74 32.7899 439.76 32.3199 439.87 31.8999C440.26 30.1599 441.96 28.7999 443.8 28.8199C444.68 28.7799 445.61 29.0399 446.34 29.5499C447.08 30.0599 447.62 30.8199 447.89 31.6599C448.02 32.0799 448.07 32.5299 448.07 32.9599C448.07 33.3699 448.07 33.7799 448.07 34.1899C448.07 35.0099 448.07 35.8199 448.07 36.6299C448.07 39.8499 448.06 42.9499 448.06 45.9099C448.04 51.8199 448.02 57.1399 448.01 61.6299C448 63.8599 447.98 65.8899 447.97 67.6699C447.96 68.5599 447.96 69.3799 447.95 70.1499C447.93 70.9399 447.7 71.6399 447.35 72.1799C446.66 73.2799 445.66 73.7099 445.03 73.8599C444.37 73.9999 444.02 73.9399 444.02 73.9399Z" fill="#263238"/>
<path d="M456.86 73.9399C456.86 73.9099 457.21 73.9299 457.84 73.7599C458.45 73.5899 459.39 73.1399 460.02 72.0699C460.34 71.5499 460.55 70.8799 460.55 70.1399C460.54 69.3799 460.54 68.5499 460.53 67.6599C460.52 65.8799 460.51 63.8499 460.49 61.6199C460.48 57.1299 460.46 51.8099 460.44 45.8999C460.44 42.9399 460.43 39.8399 460.43 36.6199C460.43 35.8199 460.43 34.9999 460.43 34.1799C460.41 33.3499 460.5 32.5299 460.27 31.7899C459.82 30.2799 458.28 29.1799 456.64 29.2799C455.02 29.2599 453.53 30.4599 453.18 31.9899C453 32.7299 453.1 33.5799 453.07 34.3999C453.07 35.2199 453.07 36.0299 453.07 36.8399C453.07 40.0599 453.06 43.1599 453.06 46.1199C453.04 52.0299 453.02 57.3499 453.01 61.8399C453 64.0699 452.98 66.0999 452.97 67.8799C452.97 68.7699 452.95 69.5999 452.96 70.3499C452.99 71.0899 453.26 71.7399 453.6 72.2399C454.31 73.2599 455.26 73.6499 455.88 73.7999C456.51 73.9399 456.86 73.9099 456.86 73.9399C456.86 73.9399 456.51 74.0099 455.85 73.9099C455.21 73.7899 454.2 73.4199 453.43 72.3699C453.06 71.8499 452.77 71.1699 452.72 70.3799C452.69 69.5999 452.7 68.7899 452.69 67.8999C452.68 66.1199 452.67 64.0899 452.65 61.8599C452.64 57.3699 452.62 52.0499 452.6 46.1399C452.6 43.1799 452.59 40.0699 452.59 36.8599C452.59 36.0499 452.59 35.2399 452.59 34.4199C452.59 34.0099 452.59 33.5999 452.59 33.1899C452.58 32.7899 452.6 32.3199 452.71 31.8999C453.1 30.1599 454.8 28.7999 456.64 28.8199C457.52 28.7799 458.45 29.0399 459.18 29.5499C459.92 30.0599 460.46 30.8199 460.73 31.6599C460.86 32.0799 460.91 32.5299 460.91 32.9599C460.91 33.3699 460.91 33.7799 460.91 34.1899C460.91 35.0099 460.91 35.8199 460.91 36.6299C460.91 39.8499 460.9 42.9499 460.9 45.9099C460.88 51.8199 460.86 57.1399 460.85 61.6299C460.84 63.8599 460.82 65.8899 460.81 67.6699C460.8 68.5599 460.8 69.3799 460.79 70.1499C460.77 70.9399 460.54 71.6399 460.19 72.1799C459.5 73.2799 458.5 73.7099 457.87 73.8599C457.21 73.9999 456.86 73.9399 456.86 73.9399Z" fill="#263238"/>
<path d="M471.39 73.9399C471.39 73.9099 471.74 73.9299 472.37 73.7599C472.98 73.5899 473.92 73.1399 474.55 72.0699C474.87 71.5499 475.08 70.8799 475.08 70.1399C475.07 69.3799 475.07 68.5499 475.06 67.6599C475.05 65.8799 475.04 63.8499 475.02 61.6199C475.01 57.1299 474.99 51.8099 474.97 45.8999C474.97 42.9399 474.96 39.8399 474.96 36.6199C474.96 35.8199 474.96 34.9999 474.96 34.1799C474.94 33.3499 475.03 32.5299 474.8 31.7899C474.35 30.2799 472.81 29.1799 471.17 29.2799C469.55 29.2599 468.06 30.4599 467.71 31.9899C467.53 32.7299 467.63 33.5799 467.6 34.3999C467.6 35.2199 467.6 36.0299 467.6 36.8399C467.6 40.0599 467.59 43.1599 467.59 46.1199C467.57 52.0299 467.55 57.3499 467.54 61.8399C467.53 64.0699 467.51 66.0999 467.5 67.8799C467.5 68.7699 467.48 69.5999 467.49 70.3499C467.52 71.0899 467.79 71.7399 468.13 72.2399C468.84 73.2599 469.79 73.6499 470.41 73.7999C471.04 73.9399 471.4 73.9099 471.39 73.9399C471.39 73.9399 471.04 74.0099 470.38 73.9099C469.74 73.7899 468.73 73.4199 467.96 72.3699C467.59 71.8499 467.3 71.1699 467.25 70.3799C467.22 69.5999 467.23 68.7899 467.22 67.8999C467.21 66.1199 467.2 64.0899 467.18 61.8599C467.17 57.3699 467.15 52.0499 467.13 46.1399C467.13 43.1799 467.12 40.0699 467.12 36.8599C467.12 36.0499 467.12 35.2399 467.12 34.4199C467.12 34.0099 467.12 33.5999 467.12 33.1899C467.11 32.7899 467.13 32.3199 467.24 31.8999C467.63 30.1599 469.33 28.7999 471.17 28.8199C472.05 28.7799 472.98 29.0399 473.71 29.5499C474.45 30.0599 474.99 30.8199 475.26 31.6599C475.39 32.0799 475.44 32.5299 475.44 32.9599C475.44 33.3699 475.44 33.7799 475.44 34.1899C475.44 35.0099 475.44 35.8199 475.44 36.6299C475.44 39.8499 475.43 42.9499 475.43 45.9099C475.41 51.8199 475.39 57.1399 475.38 61.6299C475.37 63.8599 475.35 65.8899 475.34 67.6699C475.33 68.5599 475.33 69.3799 475.32 70.1499C475.3 70.9399 475.07 71.6399 474.72 72.1799C474.03 73.2799 473.03 73.7099 472.4 73.8599C471.75 73.9999 471.39 73.9399 471.39 73.9399Z" fill="#263238"/>
<path d="M457.59 0.0199865C457.59 -1.34893e-05 457.88 -1.34888e-05 458.44 0.00998651C459.06 0.0299865 459.88 0.0499865 460.93 0.0799865C461.48 0.109987 462.09 0.109987 462.77 0.159987C463.44 0.249987 464.18 0.359986 464.97 0.469986C465.77 0.579987 466.62 0.709987 467.54 0.839987C468.44 1.05999 469.4 1.29999 470.41 1.54999C474.44 2.58999 479.32 4.35999 484.31 7.60999C489.3 10.81 494.48 15.39 498.68 21.61C502.81 27.84 505.99 35.67 506.83 44.47C506.91 46.67 507.18 48.91 506.97 51.19C506.89 52.33 506.91 53.48 506.75 54.63C506.58 55.78 506.4 56.93 506.23 58.09C505.29 62.68 503.93 67.38 501.56 71.76C499.25 76.15 496.27 80.33 492.63 84.05C488.92 87.69 484.59 90.86 479.76 93.29C474.95 95.75 469.62 97.44 464.08 98.1C462.71 98.37 461.3 98.37 459.9 98.46C458.5 98.55 457.09 98.6 455.67 98.54C452.84 98.43 450 98.07 447.2 97.47C441.11 96.17 435.37 93.69 430.34 90.37L430.85 90.42C425 92.77 419.27 95.07 413.67 97.31L412.65 97.72L412.94 96.66C414.67 90.36 416.36 84.23 417.99 78.3L418.08 78.75C413.26 72.34 410.19 65.03 408.91 57.77C408.27 54.14 408 50.52 408.24 47.02C408.31 45.27 408.4 43.54 408.73 41.86C408.86 41.02 408.99 40.18 409.12 39.35C409.27 38.52 409.52 37.72 409.72 36.92C413.04 23.99 421 14.45 428.88 8.97999C432.83 6.19999 436.72 4.20999 440.28 2.95999C441.17 2.63999 442.02 2.33999 442.85 2.03999C443.7 1.82999 444.51 1.61999 445.29 1.41999C446.07 1.22999 446.81 1.03999 447.52 0.869987C448.24 0.729987 448.93 0.659987 449.57 0.559987C450.87 0.399987 452.01 0.169987 453.01 0.119987C453.99 0.0899865 454.83 0.0599865 455.53 0.0399865C456.17 0.0299865 456.68 0.00998651 457.07 0.00998651C457.42 -1.34888e-05 457.59 -1.34893e-05 457.59 0.0199865C457.59 0.0399865 457.41 0.0599865 457.07 0.0899865C456.68 0.119987 456.17 0.159987 455.54 0.209987C454.84 0.259987 454.01 0.309987 453.03 0.379986C452.04 0.459987 450.91 0.709987 449.62 0.899987C444.56 1.82999 436.99 3.83999 429.24 9.49999C421.51 14.97 413.75 24.42 410.56 37.13C410.37 37.92 410.13 38.71 409.98 39.52C409.86 40.34 409.73 41.16 409.61 41.99C409.29 43.64 409.22 45.34 409.16 47.06C408.94 50.49 409.22 54.05 409.86 57.6C411.13 64.71 414.16 71.86 418.9 78.13L419.05 78.33L418.98 78.58C417.36 84.51 415.69 90.65 413.97 96.95L413.24 96.3C418.83 94.05 424.57 91.74 430.41 89.39L430.68 89.28L430.92 89.44C435.85 92.68 441.45 95.1 447.41 96.37C450.15 96.96 452.92 97.3 455.69 97.42C457.07 97.49 458.45 97.44 459.82 97.35C461.19 97.27 462.57 97.27 463.91 97C469.33 96.36 474.54 94.71 479.25 92.31C483.97 89.93 488.21 86.85 491.85 83.29C495.42 79.66 498.35 75.57 500.62 71.28C502.95 67 504.3 62.4 505.24 57.9C505.42 56.76 505.59 55.63 505.76 54.51C505.93 53.39 505.91 52.25 505.99 51.14C506.21 48.91 505.96 46.71 505.89 44.55C505.1 35.91 502.02 28.2 498 22.04C493.9 15.89 488.84 11.34 483.95 8.12999C479.06 4.86999 474.25 3.05999 470.28 1.96999C469.28 1.69999 468.34 1.44999 467.45 1.21999C466.55 1.06999 465.7 0.929987 464.91 0.799987C464.13 0.669987 463.4 0.549986 462.73 0.439986C462.06 0.369987 461.45 0.349986 460.91 0.309987C459.86 0.229987 459.04 0.169987 458.43 0.129987C457.88 0.0699865 457.59 0.0399865 457.59 0.0199865Z" fill="#263238"/>
<path d="M409.25 332.6C410.69 334.04 412.13 335.48 413.57 336.92C414.02 337.37 414.7 337.65 415.34 337.65C415.95 337.65 416.69 337.38 417.11 336.92C417.55 336.44 417.87 335.82 417.84 335.15C417.81 334.49 417.59 333.86 417.11 333.38C415.67 331.94 414.23 330.5 412.79 329.06C412.34 328.61 411.66 328.33 411.02 328.33C410.41 328.33 409.67 328.6 409.25 329.06C408.81 329.54 408.49 330.16 408.52 330.83C408.55 331.5 408.77 332.12 409.25 332.6Z" fill="#FAFAFA"/>
<path d="M424.93 267.49C424.93 267.63 422.76 267.75 420.09 267.75C417.42 267.75 415.25 267.63 415.25 267.49C415.25 267.35 417.42 267.23 420.09 267.23C422.76 267.23 424.93 267.35 424.93 267.49Z" fill="#455A64"/>
<path d="M458.74 156.05C457.02 150.86 460.12 132.25 456.05 132.22C450.86 132.18 452.35 153.25 452.34 155.14C452.33 156.97 449.6 157 449.71 155.3C449.85 152.86 450.67 128.8 445.47 129.23C442.59 129.46 442.95 134.72 442.95 134.72C442.95 134.72 444.56 158.78 442.1 158.89C439.6 159.01 438.76 144.97 438.56 140.04C438.37 135.31 436.37 133.42 434.2 135.01C431.88 136.71 432.46 150.85 432.58 155.59C432.7 160.33 433.26 173.35 427.77 167.02C422.28 160.69 415.73 157.84 413.45 158.29C411.17 158.74 411.05 162.09 413.4 163.18C415.3 164.06 418.04 166.5 420.02 168.42C421.65 170 422.82 171.95 424.06 173.86C424.94 175.22 426.43 177.94 427.37 181.84C428.46 186.35 431.47 190.15 435.56 192.33L435.3 201.14L460.66 198.94L461.15 182.26C461.41 169.51 463.64 160.94 464.98 153.36C467.12 141.27 465.57 140.9 464.12 140.97C460.89 141.11 460.41 161.11 458.74 156.05Z" fill="#B78876"/>
<path d="M458.73 172.42C458.74 172.54 457.33 172.52 455.25 173.29C453.19 174.03 450.49 175.72 448.67 178.56C448.18 179.32 447.81 180.12 447.5 180.9L447.35 181.29L447.04 181.03C444.94 179.27 442.76 178.19 441.16 177.58C439.56 176.96 438.54 176.74 438.56 176.66C438.57 176.6 439.62 176.69 441.29 177.22C442.95 177.75 445.23 178.78 447.41 180.58L446.95 180.71C447.26 179.89 447.65 179.04 448.16 178.25C449.11 176.77 450.32 175.59 451.54 174.7C452.77 173.82 454.02 173.25 455.11 172.9C456.19 172.54 457.12 172.45 457.75 172.39C458.39 172.36 458.73 172.38 458.73 172.42Z" fill="#AA6550"/>
<path d="M455.21 190.24C455.27 190.38 452.59 191.53 449.05 191.96C445.51 192.41 442.63 191.96 442.66 191.81C442.67 191.63 445.52 191.81 448.98 191.37C452.44 190.94 455.15 190.07 455.21 190.24Z" fill="#AA6550"/>
<path d="M387.16 191C387.16 191 400.37 197.75 407.33 207.47C414.28 217.19 435.27 247.33 435.27 247.33L432.31 201.59L464.73 197.39C464.73 197.39 474.17 243.46 476.37 259.39C478.43 274.3 477.57 288.97 463.01 296.97C445.83 306.41 426.32 293.66 419.83 288.82C411.77 282.81 396.89 273.01 396.89 273.01L387.16 191Z" fill="#E0E0E0"/>
<path d="M370.88 185.3L361.63 174.96L321.19 171.86L315.95 180.33L330.12 268.78L323.74 358.11H376.43L370.88 185.3Z" fill="#7761FF"/>
<g opacity="0.3">
<g opacity="0.3">
<path opacity="0.3" d="M326.19 336.86C327.58 335.38 329.86 333.33 331.89 333.29C346.44 332.97 361.31 331.51 375.87 331.19L376.43 358.1L369.34 354.79C368.94 351.73 368.43 348.08 365.64 346.77C364.06 346.03 362.21 346.32 360.5 346.66C355.24 347.7 350.02 349.06 344.67 349.39C339.32 349.72 333.72 348.94 329.23 346.02C327.69 345.02 326.26 343.72 325.54 342.03C324.81 340.34 324.93 338.21 326.19 336.86Z" fill="black"/>
</g>
</g>
<path d="M361.63 174.96L387.53 191.72L393 209.7L398.24 265.76L392.47 323.13L402.45 358.11H376.43L376.37 344.31L373.6 247.17L370.88 185.3L361.63 174.96Z" fill="#E0E0E0"/>
<path d="M375.57 260.57C375.58 260.58 375.73 260.33 376 259.85C376.28 259.33 376.67 258.62 377.15 257.72C377.63 256.79 378.1 255.58 378.7 254.22C378.99 253.53 379.22 252.77 379.51 251.97C379.79 251.17 380.1 250.33 380.33 249.42C382.51 242.22 383.96 231.83 383.65 220.36C383.62 219.47 383.59 218.59 383.53 217.72L383.52 217.57L383.38 217.51C382 216.93 380.65 216.36 379.32 215.8L379.38 216.22C380.77 215.1 382.13 214.01 383.43 212.96L383.51 212.89V212.79C383.7 208.47 382.65 204.58 381.66 201.2C380.64 197.81 379.52 194.89 378.54 192.48C377.56 190.08 376.71 188.2 376.1 186.92C375.8 186.28 375.55 185.79 375.38 185.47C375.21 185.14 375.11 184.98 375.1 184.98C375.09 184.99 375.16 185.16 375.3 185.5C375.46 185.88 375.68 186.37 375.94 186.98C376.5 188.28 377.31 190.17 378.25 192.58C379.19 194.99 380.27 197.92 381.25 201.3C382.2 204.67 383.21 208.55 383.01 212.74L383.1 212.57C381.79 213.62 380.44 214.7 379.04 215.81L378.72 216.07L379.1 216.23C380.42 216.79 381.78 217.36 383.16 217.94L383.01 217.73C383.07 218.59 383.1 219.47 383.13 220.35C383.43 231.76 382.05 242.12 379.97 249.3C379.75 250.21 379.45 251.05 379.19 251.85C378.92 252.65 378.7 253.41 378.42 254.1C377.85 255.47 377.41 256.68 376.96 257.62C376.51 258.53 376.16 259.25 375.89 259.78C375.67 260.29 375.56 260.56 375.57 260.57Z" fill="#263238"/>
<path d="M393.76 297.06C393.78 297.06 393.85 296.8 393.98 296.31C394.12 295.77 394.3 295.04 394.53 294.12C394.77 293.17 395.05 292 395.31 290.64C395.58 289.28 395.93 287.73 396.21 286C396.51 284.28 396.84 282.38 397.1 280.34C397.41 278.3 397.62 276.11 397.87 273.81C398.29 269.2 398.57 264.11 398.57 258.76C398.55 253.41 398.25 248.32 397.81 243.71C397.56 241.41 397.34 239.22 397.02 237.18C396.75 235.14 396.42 233.25 396.11 231.52C395.83 229.79 395.47 228.25 395.2 226.88C394.93 225.52 394.65 224.35 394.4 223.4C394.17 222.49 393.98 221.76 393.84 221.22C393.71 220.72 393.63 220.46 393.61 220.47C393.59 220.47 393.64 220.74 393.74 221.25C393.86 221.8 394.01 222.53 394.2 223.45C394.41 224.4 394.67 225.57 394.91 226.94C395.16 228.31 395.49 229.85 395.75 231.58C396.04 233.3 396.35 235.19 396.59 237.23C396.89 239.26 397.09 241.45 397.33 243.74C397.74 248.34 398.02 253.41 398.05 258.74C398.05 264.07 397.78 269.14 397.39 273.74C397.16 276.04 396.96 278.22 396.67 280.26C396.43 282.3 396.13 284.19 395.85 285.91C395.6 287.64 395.27 289.19 395.03 290.55C394.79 291.92 394.54 293.09 394.33 294.04C394.14 294.96 393.99 295.7 393.87 296.25C393.79 296.79 393.75 297.06 393.76 297.06Z" fill="#263238"/>
<path d="M387.49 343.98C387.44 344.01 387.83 344.92 388.62 346.31C389.41 347.7 390.62 349.56 392.17 351.46C393.72 353.35 395.31 354.91 396.52 355.96C397.73 357.01 398.55 357.57 398.59 357.52C398.64 357.46 397.9 356.8 396.76 355.7C395.62 354.59 394.1 353.02 392.56 351.15C391.03 349.28 389.78 347.47 388.92 346.14C388.06 344.79 387.56 343.94 387.49 343.98Z" fill="#263238"/>
<g opacity="0.3">
<path opacity="0.3" d="M374.56 297.04C371.82 295.61 368.47 296.36 365.59 297.47C362.71 298.59 359.84 300.07 356.75 300.04C352.56 300 346.61 298.47 344.41 294.9C342.22 291.33 339.99 285.87 339.1 281.78C335.76 266.4 335 252.92 331.66 237.54C329.84 229.17 327.53 219.49 324.43 211.51C321.42 203.78 318.64 195.78 316.28 187.83C316.69 205.87 317.11 223.97 319.9 241.79C321.69 253.25 324.46 264.55 325.96 276.06C327.25 285.91 327.61 295.86 327.97 305.79L337.34 317.25L363.17 317.78L376.66 300.38L374.56 297.04Z" fill="black"/>
</g>
<path d="M280.95 190.24C271.05 194.08 263.7 202.58 261.35 212.94C253.77 246.38 240.79 290.85 240.58 305.2C240.32 323.47 248.31 335.98 258.74 338.29C266.99 340.11 341.76 336.02 341.76 336.02L345.29 304.82L284.7 299.25L292.99 252.92L284.78 188.75L280.95 190.24Z" fill="#E0E0E0"/>
<path d="M284.8 188.75L301.54 181.91L320.68 171.57L320.86 172.12C318.7 175.82 316.4 182.65 317.21 186.86L331.9 263.48L328.57 319.46L323.76 358.11H275.53L293.02 316.95L284.41 239.64L284.8 188.75Z" fill="#E0E0E0"/>
<path d="M293.49 248.23C293.47 248.23 293.43 248.41 293.36 248.74C293.28 249.13 293.19 249.62 293.07 250.22C292.82 251.58 292.48 253.44 292.07 255.69C291.25 260.38 290.14 266.74 288.92 273.77C287.75 280.81 286.68 287.18 285.9 291.88C285.55 294.15 285.25 296.01 285.04 297.38C284.96 297.99 284.89 298.48 284.83 298.88C284.79 299.22 284.77 299.41 284.79 299.41C284.81 299.41 284.85 299.24 284.93 298.9C285.01 298.51 285.11 298.02 285.23 297.42C285.48 296.06 285.83 294.21 286.25 291.95C287.09 287.33 288.21 280.93 289.41 273.87C290.62 266.8 291.68 260.4 292.42 255.76C292.77 253.49 293.05 251.63 293.27 250.26C293.35 249.65 293.42 249.16 293.47 248.76C293.5 248.41 293.51 248.23 293.49 248.23Z" fill="#263238"/>
<path d="M311.49 176.96C311.48 176.96 311.46 177.02 311.42 177.15C311.38 177.3 311.33 177.49 311.27 177.71C311.15 178.21 310.93 178.93 310.73 179.89C310.3 181.8 309.8 184.6 309.45 188.14C309.1 191.67 308.95 195.94 309.13 200.72C309.29 205.5 309.8 210.79 310.52 216.4L310.54 216.58L310.72 216.61C312.46 216.93 314.31 217.28 316.19 217.63L316 217.29C315.69 218.13 315.36 219.03 315.11 219.97C313.33 226.47 314.11 233.04 315.73 238.54C317.38 244.09 319.9 248.69 322.16 252.39C324.44 256.1 326.51 258.95 327.93 260.92C328.63 261.87 329.19 262.63 329.59 263.17C329.77 263.4 329.92 263.59 330.03 263.75C330.13 263.88 330.19 263.94 330.2 263.94C330.21 263.93 330.17 263.86 330.08 263.72C329.97 263.56 329.84 263.36 329.68 263.11C329.3 262.55 328.77 261.78 328.1 260.8C326.73 258.8 324.71 255.92 322.47 252.2C320.26 248.49 317.79 243.9 316.18 238.4C314.6 232.95 313.85 226.46 315.6 220.09C315.84 219.17 316.16 218.29 316.47 217.46L316.57 217.18L316.28 217.13C314.4 216.78 312.55 216.44 310.81 216.12L311.01 216.33C310.28 210.74 309.75 205.46 309.56 200.7C309.35 195.94 309.46 191.69 309.77 188.17C310.07 184.65 310.52 181.84 310.9 179.93C311.07 178.97 311.26 178.24 311.35 177.74C311.39 177.51 311.43 177.32 311.46 177.17C311.49 177.03 311.5 176.96 311.49 176.96Z" fill="#263238"/>
<path d="M311.49 255.55V243.33C311.49 243.33 311.33 240.31 313.87 240.95C316.41 241.59 315.93 246.35 315.93 246.35C315.93 246.35 316.41 264.92 315.3 264.76C314.19 264.6 313.76 263.17 313.76 263.17V256.03L311.49 255.55Z" fill="#7761FF"/>
<path d="M300.93 256.31C300.93 256.45 303.86 256.56 307.48 256.56C311.1 256.56 314.03 256.45 314.03 256.31C314.03 256.17 311.1 256.06 307.48 256.06C303.86 256.06 300.93 256.18 300.93 256.31Z" fill="#263238"/>
<path d="M276.74 197.49C276.73 197.53 277.22 197.69 278.11 198C278.99 198.32 280.26 198.81 281.74 199.57C284.7 201.08 288.57 203.81 291.57 207.94C292.33 208.96 292.97 210.03 293.5 211.09C293.99 212.18 294.39 213.26 294.66 214.33C295.24 216.46 295.49 218.44 295.63 220.11C295.77 221.78 295.8 223.14 295.81 224.07C295.82 225.01 295.81 225.53 295.84 225.53C295.87 225.53 295.95 225.02 296 224.07C296.05 223.13 296.08 221.76 295.98 220.08C295.88 218.4 295.66 216.38 295.1 214.21C294.83 213.12 294.44 212 293.94 210.88C293.4 209.77 292.74 208.69 291.97 207.65C288.91 203.44 284.94 200.7 281.9 199.26C280.37 198.53 279.07 198.09 278.17 197.82C277.26 197.56 276.75 197.46 276.74 197.49Z" fill="#263238"/>
<path d="M341.77 336.01C341.76 336.01 341.77 335.81 341.8 335.42C341.84 335 341.89 334.43 341.96 333.72C342.12 332.19 342.34 330.03 342.62 327.31C343.22 321.77 344.07 313.98 345.08 304.78L345.29 305.04C338.49 304.46 330.85 303.82 322.79 303.13C307.95 301.82 294.53 300.64 284.76 299.78C279.9 299.3 276.03 300.74 273.65 301.97C272.45 302.6 271.58 303.21 271 303.63C270.73 303.83 270.52 304 270.35 304.13C270.2 304.24 270.12 304.29 270.12 304.29C270.12 304.29 271.16 303.16 273.56 301.8C275.93 300.5 279.84 298.98 284.8 299.42C294.57 300.24 308 301.37 322.85 302.62C330.91 303.32 338.55 303.98 345.34 304.57L345.58 304.59L345.55 304.83C344.47 314.03 343.56 321.81 342.91 327.34C342.57 330.05 342.31 332.21 342.12 333.73C342.02 334.44 341.95 335 341.89 335.42C341.82 335.82 341.78 336.02 341.77 336.01Z" fill="#263238"/>
<path d="M325.5 336.85C325.46 336.85 325.4 336.38 325.32 335.53C325.23 334.68 325.15 333.44 325.09 331.92C324.97 328.87 324.99 324.63 325.4 319.98C325.82 315.33 326.53 311.15 327.19 308.17C327.52 306.68 327.81 305.48 328.05 304.65C328.28 303.83 328.42 303.38 328.46 303.38C328.49 303.39 328.42 303.86 328.25 304.69C328.07 305.63 327.83 306.82 327.56 308.23C327 311.22 326.34 315.38 325.93 320.01C325.52 324.64 325.44 328.85 325.47 331.9C325.49 333.34 325.51 334.55 325.53 335.51C325.54 336.37 325.53 336.84 325.5 336.85Z" fill="#263238"/>
<path d="M334.07 327.06C334.06 327.03 334.32 326.93 334.81 326.93C335.3 326.93 336.03 327.09 336.75 327.62C337.46 328.13 338.16 329.14 338.07 330.38C338.01 331.57 337.27 332.9 335.93 333.44C334.57 333.94 333.13 333.45 332.3 332.58C331.42 331.7 331.32 330.45 331.58 329.61C331.83 328.74 332.34 328.18 332.73 327.9C333.13 327.61 333.41 327.56 333.42 327.59C333.44 327.63 333.2 327.75 332.86 328.06C332.53 328.37 332.11 328.92 331.93 329.71C331.75 330.48 331.87 331.52 332.64 332.25C333.36 332.97 334.63 333.38 335.74 332.96C336.85 332.52 337.52 331.38 337.59 330.36C337.69 329.31 337.13 328.42 336.52 327.92C335.9 327.4 335.24 327.2 334.79 327.14C334.34 327.07 334.08 327.11 334.07 327.06Z" fill="#263238"/>
<path d="M320.89 171.3C320.89 171.3 320.79 171.37 320.57 171.5C320.34 171.63 320.03 171.81 319.61 172.05C318.75 172.53 317.49 173.23 315.86 174.15C312.55 175.98 307.73 178.65 301.6 182.04H301.59H301.58C294.95 184.82 286.85 188.21 277.56 192.1C272.87 193.89 268.55 197.4 265.47 202.09C263.9 204.42 262.64 207.04 261.65 209.82C260.66 212.59 259.93 215.56 259.57 218.6V218.62V218.63C255.13 237.63 250.08 259.44 245.2 282.61C244.15 287.59 243.16 292.53 242.23 297.4C241.99 298.62 241.78 299.83 241.56 301.04C241.35 302.25 241.11 303.46 240.96 304.66C240.63 307.06 240.48 309.48 240.59 311.86C240.8 316.62 241.84 321.28 243.77 325.45C244.73 327.53 245.92 329.48 247.35 331.2C248.8 332.9 250.5 334.35 252.36 335.48C256.1 337.76 260.43 338.69 264.58 338.48C268.76 338.4 272.82 338.31 276.74 338.23C284.59 338.04 291.9 337.81 298.57 337.58C311.9 337.09 322.69 336.7 330.17 336.43C333.89 336.29 336.78 336.18 338.76 336.1C339.73 336.07 340.48 336.04 340.99 336.03C341.49 336.02 341.75 336.02 341.75 336.02C341.75 336.02 341.49 336.05 340.99 336.08C340.47 336.11 339.73 336.15 338.76 336.21C336.78 336.31 333.89 336.45 330.17 336.63C322.71 336.98 311.92 337.45 298.57 337.95C291.9 338.2 284.59 338.45 276.74 338.66C272.81 338.75 268.76 338.84 264.57 338.93C260.38 339.16 255.92 338.22 252.1 335.89C250.19 334.74 248.44 333.26 246.96 331.51C245.49 329.75 244.29 327.76 243.31 325.65C241.35 321.42 240.29 316.7 240.07 311.88C239.95 309.46 240.11 307.02 240.44 304.59C240.59 303.37 240.83 302.17 241.04 300.95C241.26 299.74 241.46 298.52 241.71 297.3C242.63 292.42 243.63 287.49 244.68 282.5C249.56 259.32 254.63 237.51 259.1 218.51L259.09 218.54C259.46 215.43 260.2 212.46 261.21 209.65C262.21 206.84 263.49 204.2 265.09 201.84C268.22 197.09 272.64 193.53 277.39 191.73C286.7 187.88 294.82 184.52 301.46 181.77L301.45 181.78C307.61 178.44 312.45 175.81 315.77 174C317.42 173.11 318.68 172.43 319.55 171.97C319.97 171.75 320.29 171.58 320.53 171.46C320.77 171.35 320.89 171.3 320.89 171.3Z" fill="#263238"/>
<path d="M404.8 251.65H381.94V258.78H404.8V251.65Z" fill="#263238"/>
<path d="M489.34 264.76L413.28 345.89L339.1 346.34L337.35 342.97L410.46 263.75L489.34 264.76Z" fill="#263238"/>
<path d="M417.46 263.75C417.46 263.75 422.4 263.72 423.86 265.47C425.58 267.53 428.85 272.17 421.69 283.98C418.83 288.7 404.8 305.01 399.03 321.65C393.64 337.2 396.1 342.35 396.1 342.35L449.62 340.68L450.66 338.75C450.66 338.75 473.93 275.71 467.76 263.75C464.92 258.25 417.08 261.73 417.46 263.75Z" fill="#E0E0E0"/>
<path d="M458.51 339.05L400.93 339.53C400.24 324.94 405.3 314.36 412.83 301.85C415.71 297.06 419.65 292.96 422.52 288.16C425.53 283.13 427.31 277.37 427.67 271.51C427.81 269.17 427.67 266.64 426.23 264.79C424.79 262.94 419.66 262.84 417.45 263.74C417.45 263.74 420.79 261.04 425.92 260.61C430.57 260.22 468.63 260.48 475.71 260.54C476.54 260.55 480.02 260.98 480.76 261.36C485.92 264.04 486.98 271.06 486.25 276.12C485.56 280.92 482.59 285.44 478.86 290.49C477.79 291.94 476.79 293.45 475.89 295.01C471.96 301.82 461.11 320.92 459.16 327.51C457.56 332.97 458.51 339.05 458.51 339.05Z" fill="#FAFAFA"/>
<path d="M458.51 338.92C453.89 338.96 449.27 339 444.64 339.04C435.81 339.11 426.99 339.19 418.16 339.26C414.46 339.29 410.75 339.32 407.05 339.35C405.81 339.36 404.57 339.37 403.33 339.38C402.72 339.39 401.85 339.55 401.25 339.4C401.2 339.39 400.97 339.44 400.94 339.4C400.93 339.39 401.02 338.33 401.02 338.21C401.01 337.71 401 337.21 401.01 336.7C401.01 335.72 401.04 334.74 401.1 333.76C401.33 330.01 401.99 326.3 403.04 322.7C405.17 315.44 408.85 308.74 412.72 302.28C414.85 298.73 417.49 295.57 419.93 292.24C422.25 289.08 424.23 285.73 425.59 282.04C426.92 278.43 427.74 274.57 427.85 270.72C427.92 268.24 427.56 264.84 424.95 263.73C423.78 263.23 422.46 263.08 421.2 263.07C420.34 263.06 418.37 262.97 417.65 263.55C417.44 263.72 417.55 263.77 417.7 263.73C417.8 263.7 417.96 263.55 418.04 263.49C418.43 263.23 418.84 262.98 419.25 262.76C420.64 262 422.15 261.44 423.7 261.09C426.8 260.39 430.16 260.6 433.32 260.57C443.19 260.48 453.06 260.54 462.93 260.59C466.73 260.61 470.52 260.63 474.32 260.66C476.12 260.67 477.89 260.8 479.66 261.17C482.68 261.8 484.64 264.83 485.53 267.58C486.48 270.52 486.62 273.82 486.04 276.85C485.28 280.76 483.13 284.27 480.89 287.5C478.87 290.42 476.8 293.24 475.03 296.33C473.8 298.47 472.58 300.62 471.38 302.77C468.49 307.94 465.64 313.14 463.01 318.44C460.74 323 458.55 327.5 458.2 332.66C458.06 334.78 458.09 336.97 458.41 339.08C458.43 339.24 458.67 339.17 458.65 339.01C457.85 333.75 458.68 328.53 460.8 323.7C463.06 318.55 465.74 313.58 468.43 308.64C470.88 304.14 473.38 299.67 475.95 295.24C479.68 288.79 485.68 283.16 486.51 275.4C487.03 270.55 485.91 263.45 480.81 261.23C479.21 260.53 477.04 260.43 475.3 260.42C473.91 260.41 472.53 260.4 471.14 260.39C461.45 260.33 451.75 260.28 442.06 260.29C437.88 260.29 433.7 260.3 429.52 260.37C425.72 260.44 422.1 260.81 418.72 262.77C418.26 263.04 417.81 263.32 417.39 263.65C417.29 263.73 417.4 263.9 417.51 263.86C419.58 263.07 422.27 263.08 424.36 263.77C427.39 264.76 427.71 268.37 427.59 271.11C427.3 277.67 425.09 284.1 421.49 289.58C419.71 292.29 417.65 294.8 415.72 297.4C413.88 299.87 412.29 302.48 410.75 305.15C407.93 310.03 405.32 315.07 403.5 320.42C401.4 326.59 400.53 333.02 400.81 339.52C400.81 339.59 400.86 339.65 400.94 339.65C407.43 339.6 413.91 339.54 420.4 339.49C430.74 339.4 441.07 339.32 451.41 339.23C453.78 339.21 456.15 339.19 458.52 339.17C458.67 339.17 458.67 338.92 458.51 338.92Z" fill="#263238"/>
<path d="M455.11 327.02C455.11 327.16 444.96 327.28 432.43 327.28C419.9 327.28 409.75 327.16 409.75 327.02C409.75 326.88 419.9 326.76 432.43 326.76C444.95 326.76 455.11 326.88 455.11 327.02Z" fill="#263238"/>
<path d="M456.38 319.44C456.38 319.58 446.23 319.7 433.7 319.7C421.17 319.7 411.02 319.58 411.02 319.44C411.02 319.3 421.17 319.18 433.7 319.18C446.22 319.18 456.38 319.3 456.38 319.44Z" fill="#263238"/>
<path d="M462.47 311.3C462.47 311.44 452.32 311.56 439.79 311.56C427.26 311.56 417.11 311.44 417.11 311.3C417.11 311.16 427.26 311.04 439.79 311.04C452.32 311.04 462.47 311.16 462.47 311.3Z" fill="#263238"/>
<path d="M466.23 303.86C466.23 304 456.08 304.12 443.55 304.12C431.02 304.12 420.87 304 420.87 303.86C420.87 303.72 431.02 303.6 443.55 303.6C456.07 303.6 466.23 303.72 466.23 303.86Z" fill="#263238"/>
<path d="M468.73 297.06C468.73 297.2 458.58 297.32 446.05 297.32C433.52 297.32 423.37 297.2 423.37 297.06C423.37 296.92 433.52 296.8 446.05 296.8C458.58 296.8 468.73 296.92 468.73 297.06Z" fill="#263238"/>
<path d="M474.85 288.12C474.85 288.26 464.7 288.38 452.17 288.38C439.64 288.38 429.49 288.26 429.49 288.12C429.49 287.98 439.64 287.86 452.17 287.86C464.69 287.86 474.85 287.98 474.85 288.12Z" fill="#263238"/>
<path d="M480.69 279.57C480.69 279.71 470.54 279.83 458.01 279.83C445.48 279.83 435.33 279.71 435.33 279.57C435.33 279.43 445.48 279.31 458.01 279.31C470.53 279.31 480.69 279.43 480.69 279.57Z" fill="#263238"/>
<path d="M480.27 271.44C480.27 271.58 470.12 271.7 457.59 271.7C445.06 271.7 434.91 271.58 434.91 271.44C434.91 271.3 445.06 271.18 457.59 271.18C470.12 271.18 480.27 271.29 480.27 271.44Z" fill="#263238"/>
<path d="M410.46 263.75C410.47 263.74 410.57 263.82 410.78 263.97C411.01 264.15 411.3 264.38 411.67 264.68C412.48 265.34 413.63 266.28 415.12 267.49L415.21 267.57L415.13 267.66C408.93 274.43 395.52 288.9 379.95 305.59C369.2 317.36 358.86 327.45 351.37 334.72C347.62 338.35 344.56 341.27 342.44 343.28C341.39 344.26 340.57 345.03 339.98 345.58C339.71 345.82 339.5 346.02 339.33 346.17C339.18 346.3 339.1 346.36 339.1 346.36C339.1 346.36 339.16 346.28 339.3 346.13C339.46 345.97 339.66 345.76 339.91 345.51C340.48 344.94 341.28 344.15 342.3 343.14C344.41 341.07 347.41 338.11 351.11 334.46C358.53 327.12 368.82 317.01 379.57 305.24C395.14 288.55 408.64 274.16 414.96 267.51L414.97 267.67C413.51 266.42 412.39 265.46 411.59 264.78C411.23 264.46 410.95 264.22 410.73 264.03C410.55 263.85 410.45 263.76 410.46 263.75Z" fill="#455A64"/>
<path d="M345.23 308.4H356.08C356.08 308.4 363.42 302 365.09 301.51C368.58 300.47 377.6 299.37 377.6 299.37L371.44 306.04C371.44 306.04 371.68 305.78 371.44 306.04C370.02 307.58 367.39 308.97 368.95 308.97C370.51 308.97 380.24 308.97 380.24 308.97C380.24 308.97 391.8 303.43 393.51 304.44C394.95 305.29 395.45 306.83 393.98 308.97C392.5 311.11 382.38 316.17 381.21 316.56L377.9 317.53L381.01 318.5L395.74 313.35C396.7 313.18 398.02 313.02 398.45 313.58C399.04 314.34 399.4 315.36 398.37 316.43C396.55 318.33 391.71 321.67 391.71 321.67C391.71 321.67 394.06 325.12 392.11 326.88C390.16 328.63 384.52 333.89 384.52 333.89C384.52 333.89 383.94 336.81 382.18 338.17C380.43 339.53 361.16 339.53 359.79 339.53C358.43 339.53 350.64 335.05 350.64 335.05L342.19 334.43L345.23 308.4Z" fill="#B78876"/>
<path d="M378.8 327.23C378.79 327.28 379.58 327.49 380.91 327.51C381.57 327.51 382.38 327.42 383.21 327.11C384.04 326.8 384.88 326.32 385.72 325.77C387.39 324.68 388.88 323.68 389.95 322.94C391.02 322.19 391.66 321.71 391.63 321.66C391.6 321.61 390.89 322 389.78 322.68C388.67 323.36 387.14 324.32 385.48 325.4C384.65 325.94 383.85 326.42 383.07 326.73C382.29 327.05 381.54 327.17 380.91 327.2C379.62 327.26 378.81 327.16 378.8 327.23Z" fill="#AA6550"/>
<path d="M377.92 334.45C377.88 334.48 378.34 335.01 379.38 335.27C380.39 335.54 381.97 335.43 383.35 334.6C384.74 333.83 385.83 332.9 386.58 332.2C387.32 331.49 387.72 330.99 387.68 330.95C387.58 330.83 385.81 332.68 383.14 334.2C381.82 334.99 380.42 335.12 379.45 334.95C378.47 334.79 377.96 334.38 377.92 334.45Z" fill="#AA6550"/>
<path d="M372.46 318.49C372.47 318.61 373.85 318.6 375.51 318.25C377.17 317.91 378.45 317.37 378.41 317.26C378.37 317.14 377.06 317.47 375.42 317.81C373.79 318.15 372.45 318.37 372.46 318.49Z" fill="#AA6550"/>
<path d="M298.79 101.92C295.95 96.87 291.03 93.03 285.45 91.5C279.86 89.97 273.67 90.78 268.66 93.68C264.34 96.18 260.76 100.7 261.05 105.68C261.32 110.38 264.82 114.17 268.12 117.52C262.87 119.71 260.24 126.37 261.95 131.79C263.67 137.21 269.09 141.04 274.75 141.56C280.41 142.08 286.12 139.62 290.21 135.66C294.3 131.7 296.88 126.39 298.29 120.87" fill="#263238"/>
<path d="M280.83 114.04C280.83 114.04 279.87 114.54 277.95 114.77C276.06 115.01 273.13 114.78 270.07 113.13C268.56 112.3 267 111.14 265.75 109.52C264.48 107.92 263.54 105.88 263.13 103.62C262.3 99.14 263.53 93.69 267.25 89.84C270.97 86 276.22 84.43 280.75 84.63C285.33 84.82 289.31 86.67 291.73 89.16C294.2 91.65 294.92 94.59 294.97 96.48C294.99 97.45 294.88 98.19 294.75 98.68C294.7 98.93 294.63 99.11 294.59 99.23C294.55 99.35 294.52 99.41 294.52 99.41C294.45 99.4 294.86 98.38 294.77 96.48C294.66 94.63 293.9 91.79 291.47 89.41C289.09 87.03 285.2 85.26 280.73 85.1C276.31 84.93 271.21 86.47 267.62 90.19C264.03 93.9 262.81 99.19 263.59 103.52C263.97 105.71 264.87 107.68 266.08 109.24C267.27 110.82 268.78 111.96 270.23 112.79C273.19 114.44 276.05 114.72 277.91 114.55C279.82 114.4 280.81 113.97 280.83 114.04Z" fill="#263238"/>
<path d="M287.28 118.4C287.3 118.43 287.06 118.59 286.6 118.85C286.15 119.12 285.46 119.43 284.57 119.75C283.69 120.08 282.6 120.36 281.37 120.55C280.14 120.72 278.76 120.8 277.33 120.7C275.89 120.58 274.55 120.3 273.35 119.95C272.16 119.57 271.13 119.13 270.31 118.68C269.49 118.23 268.85 117.81 268.44 117.48C268.03 117.16 267.81 116.96 267.83 116.94C267.89 116.86 268.81 117.56 270.47 118.36C271.3 118.77 272.32 119.16 273.48 119.5C274.65 119.82 275.96 120.08 277.36 120.19C278.76 120.29 280.09 120.23 281.3 120.09C282.5 119.92 283.57 119.69 284.45 119.41C286.22 118.86 287.24 118.31 287.28 118.4Z" fill="#455A64"/>
<path d="M261.03 106.52C261 106.51 261.11 106.07 261.43 105.32C261.77 104.59 262.34 103.48 263.55 102.58C264.75 101.67 266.5 101.16 268.42 100.94C270.36 100.73 272.49 100.89 274.68 101.24C279.09 101.94 282.86 103.52 285.39 104.94C286.66 105.65 287.64 106.31 288.3 106.78C288.95 107.27 289.29 107.56 289.27 107.58C289.25 107.61 288.87 107.38 288.18 106.94C287.49 106.52 286.49 105.91 285.21 105.25C282.66 103.93 278.93 102.43 274.59 101.74C272.43 101.4 270.33 101.23 268.45 101.41C266.58 101.59 264.9 102.05 263.75 102.87C262.59 103.68 261.98 104.71 261.6 105.4C261.24 106.12 261.07 106.53 261.03 106.52Z" fill="#455A64"/>
<path d="M291.57 126.58C291.59 126.59 291.53 126.7 291.42 126.92C291.31 127.14 291.13 127.44 290.88 127.82C290.38 128.58 289.56 129.64 288.36 130.76C287.16 131.87 285.54 133.02 283.54 133.89C281.54 134.74 279.16 135.29 276.64 135.26C274.12 135.24 271.74 134.68 269.76 133.75C267.78 132.81 266.25 131.5 265.23 130.2C264.21 128.89 263.73 127.61 263.55 126.71C263.46 126.26 263.42 125.9 263.43 125.66C263.42 125.42 263.43 125.29 263.45 125.29C263.51 125.28 263.51 125.79 263.76 126.66C263.99 127.52 264.5 128.74 265.53 129.97C266.55 131.19 268.05 132.43 269.97 133.31C271.89 134.18 274.21 134.72 276.65 134.73C279.09 134.76 281.41 134.25 283.36 133.44C285.32 132.62 286.91 131.53 288.12 130.48C290.54 128.35 291.48 126.51 291.57 126.58Z" fill="#455A64"/>
<path d="M293.47 131.78C293.5 131.8 293.12 132.29 292.38 133.11C291.64 133.93 290.53 135.09 289.07 136.44C288.34 137.11 287.52 137.82 286.6 138.55C285.69 139.27 284.66 140.02 283.46 140.6C281.08 141.78 278.14 142.4 275.08 142.23C272.04 142.05 269.11 141.14 267.03 139.45C264.94 137.78 263.59 135.73 262.79 133.9C261.97 132.07 261.74 130.43 261.68 129.33C261.65 128.77 261.67 128.34 261.71 128.05C261.74 127.76 261.76 127.61 261.78 127.61C261.8 127.61 261.81 127.77 261.82 128.06C261.81 128.35 261.83 128.78 261.89 129.32C262.01 130.4 262.29 131.99 263.13 133.76C263.95 135.52 265.3 137.5 267.32 139.08C269.33 140.68 272.15 141.55 275.11 141.72C278.08 141.88 280.94 141.29 283.25 140.18C284.41 139.63 285.41 138.92 286.33 138.22C287.25 137.52 288.08 136.83 288.82 136.18C290.3 134.88 291.44 133.76 292.23 132.99C293.02 132.2 293.44 131.76 293.47 131.78Z" fill="#455A64"/>
<path d="M301.88 101.33L303.34 102.48C302.75 99.99 299.97 98.42 297.43 98.69C294.89 98.96 292.69 100.73 291.34 102.9C289.99 105.07 289.37 107.61 288.89 110.12C288.1 114.31 287.72 118.79 289.39 122.72C291.06 126.65 295.37 129.73 299.51 128.7C303.63 127.67 305.94 123.19 306.55 118.99C307.46 112.79 305.73 106.26 301.88 101.33Z" fill="#7761FF"/>
<path d="M296.15 120.34C296.22 120.45 294.5 121.33 292.19 121.2C291.05 121.15 290.05 120.87 289.36 120.58C288.62 120.29 288.41 119.74 288.5 119.73C288.56 119.7 288.81 120.06 289.49 120.24C290.17 120.43 291.14 120.64 292.22 120.69C294.4 120.8 296.1 120.19 296.15 120.34Z" fill="#263238"/>
<path d="M298.18 112.93C298.18 113.07 296.03 113.12 293.38 113.04C290.73 112.96 288.59 112.77 288.6 112.63C288.6 112.49 290.75 112.44 293.4 112.52C296.05 112.6 298.19 112.78 298.18 112.93Z" fill="#263238"/>
<path d="M296.58 104.99C296.56 105.16 295.1 104.95 293.36 104.79C292.49 104.73 291.71 104.79 291.16 104.91C290.61 105.03 290.27 105.17 290.23 105.1C290.2 105.05 290.48 104.78 291.05 104.56C291.62 104.33 292.47 104.2 293.39 104.27C295.22 104.44 296.6 104.88 296.58 104.99Z" fill="#263238"/>
<path d="M306.75 84.9401C306.63 80.7501 310.51 77.5101 314.41 75.9801C318.31 74.4501 322.65 73.8701 326.12 71.5301C329.2 69.4601 331.27 66.2301 333.87 63.5801C340.26 57.1001 350.24 54.4101 359.03 56.8101C367.81 59.2101 375.05 66.5901 377.26 75.4201C378.76 81.3901 377.74 88.4401 373.03 92.4101C367.57 97.0101 359.48 95.9901 352.48 94.5601C345.49 93.1301 337.57 91.7201 331.73 95.8201C328.21 98.3001 326.19 102.33 324.04 106.06C321.89 109.79 319.19 113.6 315.11 115C311.04 116.4 305.51 113.98 305.35 109.68" fill="#263238"/>
<path d="M307.03 87.24C307.49 90.75 304.95 93.9 302.42 96.38C299.89 98.86 297.03 101.49 296.59 105C296.07 109.1 299.06 113.15 298.2 117.19C297.65 119.76 295.65 121.74 294.44 124.07C292.74 127.34 292.65 131.3 293.69 134.84C294.73 138.38 296.39 146.27 298.85 149.02C305.65 156.62 316.47 163.18 326.41 165.46C336.35 167.74 346.67 167.76 356.85 167.13C365.18 166.62 374.76 167 381.71 155.54C385.31 149.6 387.09 141.71 389 135.04C390.65 129.29 392.07 123.14 390.36 117.42C389.36 114.08 387.36 111.12 386.37 107.78C385.14 103.61 385.59 99.14 385.1 94.82C384.03 85.46 378.22 76.77 369.99 72.2C361.76 67.63 351.31 67.3 342.8 71.34" fill="#263238"/>
<path d="M321.19 182.63C321.19 182.63 321.23 182.89 321.24 183C321.24 182.94 321.22 182.84 321.19 182.63Z" fill="#B78876"/>
<path d="M381.1 101.63C380.32 89.67 372.36 75.02 360.45 76.31L323.26 85.8001C319.64 86.1901 316.92 89.29 317 92.93L321.09 180.66C321.16 182.15 321.51 183.62 322.12 184.98C324.88 191.07 334.06 206.54 353.99 200.27C358.87 198.74 361.09 193.4 362.06 187.92C362.07 187.27 362.33 186.69 362.34 186.07C363.15 179.74 362.49 173.75 362.49 173.75C362.56 166.51 362.55 163.54 362.56 163.6C362.56 163.6 377.83 161.03 380.95 141.09C382.5 131.17 381.97 114.92 381.1 101.63Z" fill="#B78876"/>
<path d="M321.24 183C321.25 183.07 321.25 183.06 321.24 183V183Z" fill="#B78876"/>
<path d="M375.11 114.59C375.16 115.94 374.06 117.1 372.65 117.17C371.24 117.25 370.06 116.22 370.01 114.87C369.96 113.52 371.06 112.36 372.47 112.28C373.88 112.21 375.06 113.24 375.11 114.59Z" fill="#263238"/>
<path d="M377.6 110.1C377.28 110.43 375.34 109.01 372.59 109.02C369.84 108.99 367.83 110.41 367.53 110.08C367.38 109.93 367.71 109.33 368.58 108.69C369.44 108.05 370.92 107.43 372.63 107.43C374.34 107.44 375.79 108.06 376.62 108.71C377.46 109.35 377.75 109.95 377.6 110.1Z" fill="#263238"/>
<path d="M347.85 114.59C347.9 115.94 346.8 117.1 345.39 117.17C343.98 117.25 342.8 116.22 342.75 114.87C342.7 113.52 343.8 112.36 345.21 112.28C346.62 112.21 347.8 113.24 347.85 114.59Z" fill="#263238"/>
<path d="M350.56 110.67C350.24 111 348.3 109.58 345.55 109.59C342.8 109.56 340.79 110.98 340.49 110.65C340.34 110.5 340.66 109.9 341.54 109.26C342.4 108.62 343.88 108 345.59 108C347.3 108.01 348.75 108.63 349.58 109.28C350.42 109.92 350.71 110.52 350.56 110.67Z" fill="#263238"/>
<path d="M360.58 131.05C360.57 130.89 362.28 130.59 365.05 130.23C365.75 130.16 366.42 130.01 366.53 129.54C366.69 129.03 366.4 128.28 366.06 127.46C365.4 125.76 364.7 123.98 363.97 122.12C361.07 114.51 358.97 108.25 359.27 108.14C359.58 108.03 362.18 114.1 365.08 121.71C365.78 123.59 366.45 125.37 367.08 127.09C367.35 127.89 367.81 128.79 367.45 129.85C367.26 130.38 366.75 130.76 366.3 130.88C365.85 131.02 365.45 131.03 365.11 131.05C362.33 131.19 360.6 131.21 360.58 131.05Z" fill="#263238"/>
<path d="M362.56 163.6C362.56 163.6 349.15 164.49 335.85 156.54C335.85 156.54 342.59 170.32 362.54 168.41L362.56 163.6Z" fill="#AA6550"/>
<path d="M359.44 137.68C358.45 136.37 356.71 135.66 354.99 135.85C353.8 135.98 352.59 136.56 351.87 137.53C351.15 138.5 351 139.88 351.66 140.81C352.4 141.85 353.96 142.09 355.27 141.71C356.58 141.33 357.71 140.47 358.78 139.6C359.08 139.36 359.38 139.11 359.56 138.78C359.74 138.45 359.78 138.03 359.55 137.76" fill="#AA6550"/>
<path d="M352.49 132.97C352.94 132.94 352.95 135.93 355.51 138.04C358.07 140.16 361.25 139.82 361.27 140.24C361.31 140.43 360.56 140.82 359.22 140.86C357.9 140.91 355.98 140.49 354.41 139.2C352.85 137.9 352.17 136.17 352.07 134.95C351.96 133.69 352.29 132.95 352.49 132.97Z" fill="#263238"/>
<path d="M351.78 105.85C351.51 106.6 348.76 106.25 345.54 106.65C342.3 106.98 339.7 107.93 339.27 107.26C339.08 106.94 339.53 106.24 340.58 105.51C341.62 104.78 343.28 104.09 345.22 103.87C347.16 103.65 348.93 103.96 350.11 104.43C351.3 104.91 351.9 105.5 351.78 105.85Z" fill="#263238"/>
<path d="M376.57 102.14C376.09 102.77 374.19 102.12 371.91 102.1C369.63 101.99 367.7 102.53 367.26 101.88C367.06 101.56 367.37 100.94 368.21 100.34C369.04 99.7499 370.43 99.2599 371.99 99.3099C373.56 99.3599 374.91 99.9199 375.71 100.56C376.51 101.19 376.78 101.83 376.57 102.14Z" fill="#263238"/>
<path d="M309.35 151.38C314.83 152.49 320.8 150.8 324.9 146.99C329 143.18 331.11 137.35 330.41 131.8C329.79 126.9 327.15 121.92 328.85 117.29C331.09 111.16 339.68 109.28 341.96 103.17C343.28 99.62 342.1 95.46 343.6 91.98C345.01 88.71 348.46 86.82 351.81 85.61C355.16 84.4 358.76 83.56 361.57 81.37C364.39 79.18 366.14 75.05 364.33 71.98C349.46 73.76 334.8 77.32 320.77 82.56C317.52 83.78 314.1 85.24 312.18 88.13C310.14 91.19 310.24 95.14 310.41 98.81C311.25 116.71 312.08 134.61 312.92 152.5" fill="#263238"/>
<path d="M310.6 158.23C310.59 158.24 310.48 158.17 310.28 158.02C310.04 157.84 309.75 157.61 309.39 157.34C308.62 156.74 307.49 155.84 306.09 154.6C304.7 153.36 303.03 151.79 301.4 149.67C299.79 147.57 298.22 144.83 297.67 141.47C297.08 138.2 297.51 134.08 300.24 130.98C301.58 129.46 303.31 128.33 304.88 127.02C306.48 125.74 307.81 124.11 308.5 122.08C309.97 118.02 309.32 113.31 309.89 108.5C310.52 103.72 312.23 98.78 315.54 94.77C317.19 92.79 319.18 91.07 321.45 89.94C323.71 88.75 326.16 88.25 328.43 87.59C330.72 86.96 332.81 86.01 334.55 84.57C336.3 83.16 337.74 81.44 338.99 79.67C341.49 76.11 343.35 72.32 345.73 69.16C346.92 67.58 348.21 66.15 349.66 64.99C351.11 63.83 352.7 62.98 354.32 62.45C357.54 61.35 360.93 61.72 363.17 63.33C365.38 65.01 366.19 67.44 366.31 69.3C366.4 71.22 365.76 72.65 365.11 73.41C364.79 73.8 364.51 74.05 364.3 74.19C364.1 74.34 363.99 74.41 363.98 74.4C363.97 74.39 364.06 74.29 364.24 74.12C364.43 73.96 364.69 73.7 364.97 73.3C365.55 72.54 366.11 71.15 365.97 69.32C365.81 67.54 364.96 65.25 362.88 63.73C360.78 62.27 357.57 61.95 354.51 63.04C352.97 63.56 351.46 64.4 350.08 65.52C348.7 66.64 347.46 68.05 346.31 69.6C344 72.71 342.18 76.49 339.65 80.14C338.38 81.95 336.91 83.74 335.07 85.23C333.26 86.75 330.98 87.78 328.67 88.42C326.36 89.11 323.98 89.6 321.85 90.73C319.69 91.8 317.8 93.44 316.22 95.34C313.04 99.18 311.37 103.98 310.75 108.62C310.17 113.27 310.84 118.04 309.27 122.37C308.53 124.53 307.04 126.33 305.38 127.63C303.75 128.96 302.05 130.07 300.79 131.48C298.23 134.33 297.75 138.22 298.29 141.38C298.77 144.63 300.26 147.3 301.8 149.39C303.35 151.5 304.98 153.09 306.32 154.36C307.68 155.62 308.77 156.56 309.5 157.21C310.24 157.86 310.62 158.21 310.6 158.23Z" fill="#455A64"/>
<path d="M391.5 127.07C391.43 127.02 392.23 126.56 392.67 125.16C393.1 123.79 392.94 121.51 391.53 119.31C390.84 118.2 389.91 117.1 388.97 115.85C388.03 114.61 387.09 113.14 386.67 111.39C386.22 109.65 386.25 107.75 386.45 105.85C386.66 103.94 387.04 102.01 387.29 100.02C387.84 96.05 387.21 92.19 385.99 88.96C384.77 85.72 382.98 83.09 381.23 81.15C379.45 79.22 377.75 77.91 376.49 77.14C375.25 76.35 374.51 75.99 374.53 75.95C374.54 75.93 374.73 76.01 375.08 76.18C375.42 76.36 375.97 76.57 376.59 76.97C377.89 77.69 379.65 78.97 381.49 80.9C383.31 82.84 385.16 85.49 386.43 88.79C387.7 92.07 388.36 96.03 387.8 100.08C387.55 102.1 387.16 104.03 386.95 105.9C386.74 107.77 386.72 109.6 387.13 111.26C387.52 112.93 388.39 114.34 389.31 115.58C390.22 116.82 391.15 117.95 391.84 119.1C393.26 121.41 393.37 123.79 392.86 125.21C392.61 125.93 392.25 126.41 391.97 126.68C391.68 126.96 391.51 127.08 391.5 127.07Z" fill="#263238"/>
<path d="M572.75 358.47C383.2 358.47 230.13 358.59 230.13 358.73C230.13 358.87 383.2 358.99 572.75 358.99V358.47Z" fill="#263238"/>
<path d="M563.49 299.58H477.96V397.58H563.49V299.58Z" fill="#EBEBEB"/>
<path d="M563.49 397.58C563.49 397.58 563.48 397.42 563.48 397.11C563.48 396.79 563.47 396.34 563.47 395.74C563.46 394.53 563.45 392.75 563.44 390.44C563.43 385.8 563.41 379.03 563.38 370.43C563.35 353.25 563.31 328.78 563.26 299.58L563.49 299.81C538.29 299.82 509.03 299.83 477.96 299.84H477.95L478.21 299.58C478.2 335.72 478.18 369.41 478.17 397.58L477.95 397.36C503.67 397.41 525.02 397.45 539.96 397.47C547.43 397.49 553.3 397.51 557.31 397.53C559.31 397.54 560.84 397.55 561.89 397.56C562.94 397.56 563.49 397.58 563.49 397.58C563.49 397.58 562.97 397.6 561.95 397.6C560.91 397.61 559.39 397.61 557.41 397.63C553.41 397.64 547.56 397.66 540.11 397.69C525.14 397.72 503.73 397.76 477.96 397.8H477.74V397.58C477.73 369.41 477.71 335.72 477.7 299.58V299.32H477.96H477.97C509.03 299.33 538.3 299.34 563.5 299.35H563.73V299.58C563.68 328.84 563.64 353.36 563.61 370.58C563.58 379.16 563.56 385.91 563.55 390.53C563.54 392.82 563.53 394.58 563.52 395.78C563.51 396.36 563.51 396.81 563.51 397.12C563.5 397.43 563.49 397.58 563.49 397.58Z" fill="#263238"/>
<path d="M495.47 334.24C496.52 332.66 497.2 326.16 498.57 326.53C500.31 326.99 497.87 333.9 497.7 334.53C497.53 335.14 498.44 335.4 498.56 334.83C498.74 334 500.68 325.89 502.38 326.51C503.32 326.85 502.72 328.57 502.72 328.57C502.72 328.57 499.96 336.46 500.77 336.72C501.59 336.99 503.17 332.38 503.69 330.75C504.19 329.19 505.03 328.74 505.61 329.47C506.23 330.25 504.73 334.92 504.25 336.49C503.77 338.06 502.38 342.36 504.8 340.75C507.22 339.14 509.67 338.79 510.39 339.15C511.11 339.51 510.84 340.64 509.96 340.79C509.24 340.91 508.1 341.47 507.27 341.93C506.58 342.31 506.01 342.85 505.42 343.37C505 343.74 504.25 344.52 503.58 345.73C502.8 347.13 501.44 348.13 499.88 348.48L499.15 351.45L490.88 348.37L492.26 342.75C493.35 338.47 493.4 335.4 493.65 332.74C494.05 328.5 494.6 328.52 495.08 328.68C496.13 329.05 494.45 335.78 495.47 334.24Z" fill="#FFBE9D"/>
<path d="M493.96 339.71C493.95 339.75 494.42 339.87 495.04 340.32C495.66 340.76 496.41 341.57 496.75 342.69C496.84 342.99 496.89 343.29 496.92 343.58L496.94 343.72L497.07 343.66C497.93 343.27 498.76 343.11 499.35 343.05C499.94 342.99 500.3 343.01 500.3 342.98C500.3 342.96 499.94 342.89 499.34 342.92C498.74 342.94 497.88 343.08 496.98 343.48L497.12 343.56C497.09 343.26 497.04 342.94 496.94 342.63C496.76 342.05 496.47 341.54 496.14 341.13C495.81 340.72 495.44 340.42 495.11 340.2C494.78 339.98 494.48 339.86 494.28 339.79C494.08 339.72 493.97 339.7 493.96 339.71Z" fill="#EB996E"/>
<path d="M493.5 345.99C493.47 346.03 494.26 346.66 495.4 347.13C496.54 347.61 497.54 347.72 497.55 347.67C497.56 347.61 496.6 347.41 495.48 346.94C494.36 346.48 493.53 345.94 493.5 345.99Z" fill="#EB996E"/>
<path d="M491.09 387.46C492.91 387.28 494.63 386.56 496.03 385.38L509.37 374.1L509.25 387.1L506.61 387.29L507.35 396.95H548.64L548.66 396.72C551.2 394.56 552.76 391.3 553.32 387.74C554.32 381.31 554.7 370.82 555.6 363.41C556.23 358.2 555.08 351.44 550.44 348.98L546.85 347.57L535.57 343.13L521.08 343.8L511.4 346.52C508.72 347.54 506.4 350.75 504.75 353.13L496.68 364.35C496.77 362.52 500.11 351.46 500.33 350.96L490.46 346.89C490.46 346.89 480.29 369.5 481.66 379.26C482.78 387.37 491.09 387.46 491.09 387.46Z" fill="#7761FF"/>
<path d="M540.28 309.8C542.91 312.33 543.99 316.1 543.01 319.61C543 319.63 543 319.66 542.99 319.68C541.78 323.94 539.72 327.96 536.97 331.43C536.73 331.74 536.34 332.07 535.99 331.9C535.75 331.78 535.68 331.47 535.64 331.2C535.35 328.9 535.72 326.59 535.99 324.29C536.27 321.99 536.44 319.62 535.79 317.4C535.14 315.18 533.49 313.12 531.23 312.6C529.57 312.21 527.81 312.7 526.29 313.48C524.77 314.27 523.43 315.34 521.98 316.24C520.53 317.14 518.91 317.89 517.2 317.91C515.49 317.93 513.69 317.06 513.01 315.49C512.34 313.92 513.23 311.75 514.91 311.45C513.38 311.26 512.58 309.77 512.47 308.23C512.47 308.23 512.57 305.63 516.34 305.8C516.34 305.8 516.85 301.88 520.64 303.31C524.05 304.59 524.5 305.6 529.87 304.4C529.87 304.4 537.11 302.64 539.32 308.88L540.28 309.8Z" fill="#263238"/>
<path d="M539.38 320.27L536.03 345.99C535.46 350.36 531.35 353.37 527.01 352.59C522.96 351.86 520.2 348.07 520.73 343.99C520.98 342.05 521.19 340.44 521.2 340.24C521.2 340.24 514.73 338.77 515.1 332.23C515.28 329.07 516.18 322.59 517.06 316.73C518.01 310.44 523.63 305.94 529.97 306.38L530.6 306.42C537.38 307.29 540.43 313.52 539.38 320.27Z" fill="#FFBE9D"/>
<path d="M521.2 340.14C521.2 340.14 525.31 340.76 529.89 338.31C529.89 338.31 527.55 342.88 521.07 341.84L521.2 340.14Z" fill="#EB996E"/>
<path d="M517.89 321.6C518 321.73 518.74 321.25 519.75 321.33C520.75 321.39 521.46 321.96 521.57 321.84C521.63 321.79 521.52 321.56 521.22 321.31C520.92 321.06 520.4 320.79 519.77 320.75C519.14 320.71 518.6 320.9 518.28 321.12C517.95 321.33 517.83 321.54 517.89 321.6Z" fill="#263238"/>
<path d="M527.57 322.16C527.68 322.29 528.42 321.82 529.43 321.89C530.43 321.95 531.14 322.52 531.25 322.4C531.31 322.35 531.21 322.12 530.9 321.87C530.6 321.62 530.08 321.35 529.45 321.31C528.82 321.27 528.28 321.46 527.96 321.68C527.64 321.89 527.52 322.1 527.57 322.16Z" fill="#263238"/>
<path d="M523.95 328.1C523.96 328.04 523.34 327.89 522.34 327.69C522.09 327.65 521.85 327.58 521.81 327.4C521.76 327.21 521.89 326.94 522.03 326.65C522.31 326.05 522.61 325.41 522.92 324.75C524.17 322.04 525.09 319.81 524.98 319.76C524.87 319.71 523.77 321.87 522.53 324.57C522.23 325.24 521.94 325.88 521.67 326.48C521.55 326.76 521.36 327.08 521.47 327.48C521.53 327.68 521.7 327.83 521.87 327.88C522.03 327.94 522.18 327.95 522.3 327.97C523.31 328.11 523.94 328.16 523.95 328.1Z" fill="#263238"/>
<path d="M526.86 329C526.7 328.98 526.62 330.07 525.63 330.78C524.64 331.49 523.49 331.29 523.47 331.44C523.45 331.51 523.71 331.67 524.2 331.72C524.68 331.77 525.39 331.66 526 331.23C526.6 330.79 526.89 330.18 526.96 329.73C527.03 329.28 526.93 329 526.86 329Z" fill="#263238"/>
<path d="M528.12 316.95C528.2 317.23 529.21 317.17 530.38 317.39C531.55 317.59 532.48 318 532.65 317.77C532.73 317.66 532.58 317.39 532.21 317.1C531.85 316.81 531.26 316.52 530.55 316.39C529.85 316.26 529.19 316.33 528.75 316.48C528.32 316.62 528.09 316.82 528.12 316.95Z" fill="#263238"/>
<path d="M518.89 317.15C519.05 317.39 519.76 317.2 520.59 317.25C521.42 317.27 522.12 317.51 522.29 317.28C522.37 317.17 522.27 316.93 521.98 316.7C521.69 316.46 521.2 316.25 520.62 316.23C520.05 316.21 519.54 316.38 519.23 316.59C518.93 316.81 518.82 317.04 518.89 317.15Z" fill="#263238"/>
<path d="M538.51 325.08C538.62 325.04 543.09 324.06 542.64 328.52C542.19 332.98 537.8 331.61 537.81 331.48C537.82 331.35 538.51 325.08 538.51 325.08Z" fill="#FFBE9D"/>
<path d="M539.34 329.92C539.36 329.91 539.41 329.98 539.54 330.06C539.66 330.13 539.88 330.19 540.12 330.13C540.61 330 541.08 329.3 541.18 328.5C541.23 328.1 541.19 327.7 541.08 327.37C540.98 327.03 540.79 326.78 540.56 326.71C540.33 326.63 540.15 326.76 540.08 326.88C540.01 327 540.03 327.09 540 327.1C539.99 327.11 539.91 327.02 539.97 326.84C540 326.75 540.06 326.65 540.17 326.58C540.29 326.5 540.45 326.48 540.61 326.51C540.95 326.57 541.23 326.92 541.35 327.28C541.49 327.65 541.55 328.1 541.49 328.55C541.37 329.45 540.83 330.24 540.16 330.36C539.84 330.41 539.59 330.29 539.46 330.17C539.34 330.03 539.33 329.93 539.34 329.92Z" fill="#EB996E"/>
<path d="M515.77 315.28C518.6 316.25 521.88 315.74 524.29 313.97C525.97 312.73 527.33 310.88 529.37 310.4C530.74 310.08 532.21 310.47 533.39 311.24C534.57 312 535.5 313.11 536.27 314.28C534.78 317.52 535.37 321.28 535.99 324.79C536.06 325.18 536.14 325.6 536.44 325.86C536.94 326.3 537.75 326.04 538.25 325.59C539.04 324.87 539.4 323.8 539.66 322.76C540.25 320.4 540.49 317.92 540.12 315.51C539.75 313.1 538.76 310.76 537.12 308.95C535.07 306.7 532.06 305.4 529.02 305.23C525.98 305.07 522.92 306 520.37 307.67C519.19 308.44 518.08 309.4 517.41 310.64" fill="#263238"/>
<path d="M531.15 325.41C531.21 325.43 531.27 325.39 531.29 325.32C531.31 325.26 531.27 325.19 531.21 325.17C531.15 325.15 531.09 325.19 531.07 325.26C531.06 325.32 531.09 325.39 531.15 325.41Z" fill="#EB996E"/>
<path d="M529.26 324.84C529.32 324.86 529.38 324.81 529.4 324.73C529.42 324.66 529.39 324.58 529.33 324.57C529.27 324.55 529.21 324.6 529.19 324.68C529.17 324.75 529.2 324.82 529.26 324.84Z" fill="#EB996E"/>
<path d="M527.97 324.72C528.03 324.73 528.09 324.66 528.11 324.56C528.13 324.46 528.1 324.37 528.04 324.36C527.98 324.35 527.92 324.42 527.9 324.52C527.88 324.62 527.91 324.7 527.97 324.72Z" fill="#EB996E"/>
<path d="M530.12 326.55C530.18 326.55 530.23 326.53 530.24 326.49C530.24 326.45 530.2 326.42 530.13 326.41C530.07 326.41 530.02 326.43 530.01 326.47C530.02 326.51 530.06 326.54 530.12 326.55Z" fill="#EB996E"/>
<path d="M528.39 326.02C528.45 326.03 528.51 325.98 528.52 325.91C528.53 325.84 528.49 325.78 528.43 325.77C528.37 325.76 528.31 325.81 528.3 325.88C528.29 325.94 528.33 326.01 528.39 326.02Z" fill="#EB996E"/>
<path d="M519.31 324.29C519.37 324.31 519.43 324.27 519.45 324.2C519.47 324.13 519.43 324.07 519.38 324.05C519.32 324.03 519.26 324.07 519.24 324.14C519.21 324.21 519.25 324.27 519.31 324.29Z" fill="#EB996E"/>
<path d="M518.01 324.08C518.07 324.09 518.13 324.04 518.14 323.96C518.15 323.88 518.11 323.81 518.05 323.8C517.99 323.79 517.93 323.84 517.92 323.92C517.91 324 517.95 324.07 518.01 324.08Z" fill="#EB996E"/>
<path d="M520.46 324.4C520.52 324.42 520.58 324.39 520.59 324.34C520.6 324.29 520.57 324.23 520.51 324.22C520.45 324.2 520.39 324.23 520.38 324.28C520.36 324.33 520.4 324.39 520.46 324.4Z" fill="#EB996E"/>
<path d="M519.4 325.64C519.45 325.67 519.53 325.64 519.56 325.58C519.59 325.52 519.58 325.44 519.52 325.41C519.47 325.38 519.39 325.41 519.36 325.47C519.33 325.54 519.35 325.61 519.4 325.64Z" fill="#EB996E"/>
<path d="M518.3 325.34C518.36 325.33 518.4 325.28 518.39 325.23C518.38 325.18 518.32 325.15 518.26 325.16C518.2 325.17 518.16 325.22 518.17 325.27C518.18 325.32 518.24 325.35 518.3 325.34Z" fill="#EB996E"/>
<path d="M525.28 310.2C525.32 310.22 524.88 311.02 523.68 311.79C522.52 312.56 520.49 313.22 518.33 312.67C516.18 312.1 514.72 310.54 514.08 309.3C513.41 308.04 513.41 307.13 513.45 307.13C513.54 307.11 513.68 307.97 514.39 309.11C515.08 310.24 516.48 311.64 518.45 312.16C520.43 312.66 522.33 312.12 523.48 311.46C524.67 310.82 525.21 310.13 525.28 310.2Z" fill="#455A64"/>
<path d="M539.44 311.34C539.35 311.4 539.08 310.09 537.45 309.07C536.66 308.57 535.57 308.21 534.32 308.16C533.07 308.1 531.69 308.32 530.26 308.64C528.82 308.96 527.44 309.3 526.13 309.4C524.83 309.52 523.62 309.37 522.69 309.03C521.75 308.7 521.07 308.22 520.68 307.83C520.29 307.44 520.15 307.16 520.17 307.14C520.23 307.06 520.96 308.14 522.8 308.67C523.71 308.94 524.84 309.05 526.09 308.91C527.34 308.79 528.7 308.44 530.15 308.12C531.6 307.8 533.03 307.58 534.35 307.67C535.67 307.74 536.83 308.17 537.65 308.75C538.48 309.32 538.97 310 539.2 310.5C539.44 311.02 539.47 311.33 539.44 311.34Z" fill="#455A64"/>
<path d="M541.55 316.75C541.59 316.88 540.1 317.15 538.49 316.37C536.87 315.6 536.16 314.26 536.28 314.21C536.4 314.12 537.24 315.21 538.71 315.9C540.18 316.62 541.55 316.59 541.55 316.75Z" fill="#455A64"/>
<path d="M541 319.71C540.98 319.78 540.62 319.76 540.04 319.64C539.47 319.52 538.66 319.3 537.86 318.82C537.06 318.33 536.5 317.64 536.28 317.06C536.04 316.48 536.09 316.09 536.15 316.09C536.23 316.08 536.31 316.43 536.6 316.9C536.88 317.37 537.41 317.94 538.13 318.38C538.85 318.82 539.6 319.08 540.14 319.29C540.69 319.49 541.02 319.64 541 319.71Z" fill="#455A64"/>
<path d="M509.37 387.11C509.31 387.11 509.27 380.52 509.27 372.39C509.27 364.26 509.32 357.66 509.37 357.66C509.43 357.66 509.47 364.25 509.47 372.39C509.48 380.52 509.43 387.11 509.37 387.11Z" fill="#263238"/>
<path d="M550.49 352.06C550.49 352.1 549.74 351.94 548.53 352.02C547.33 352.09 545.65 352.48 544.1 353.5C542.56 354.52 541.55 355.92 541.01 357C540.46 358.08 540.32 358.84 540.28 358.82C540.27 358.82 540.3 358.63 540.38 358.3C540.46 357.97 540.62 357.49 540.88 356.94C541.39 355.83 542.4 354.38 543.99 353.33C545.57 352.28 547.3 351.91 548.52 351.88C549.13 351.86 549.63 351.9 549.97 351.95C550.3 352 550.49 352.05 550.49 352.06Z" fill="#263238"/>
<path d="M496.6 362.9C496.62 362.9 496.59 363.12 496.56 363.52C496.53 363.92 496.5 364.49 496.52 365.21C496.53 366.64 496.83 368.59 496.93 370.78C497.03 372.97 496.61 374.99 495.9 376.26C495.56 376.9 495.19 377.36 494.9 377.64C494.61 377.92 494.43 378.05 494.43 378.05C494.39 378.01 495.14 377.47 495.78 376.2C496.44 374.94 496.82 372.96 496.73 370.8C496.63 368.63 496.35 366.66 496.38 365.22C496.38 364.5 496.43 363.92 496.49 363.52C496.51 363.32 496.55 363.17 496.57 363.06C496.58 362.95 496.59 362.9 496.6 362.9Z" fill="#263238"/>
<path d="M506.71 388.53L507.47 396.94L503.5 396.92C503.39 396.92 501.77 396.89 499.99 396.86C498.68 397.03 496.59 397.03 495.96 396.97C495.85 396.96 495.78 396.94 495.77 396.93C495.77 396.93 495.47 396.89 495.16 396.78C495.15 396.78 495.14 396.78 495.14 396.78V396.77C494.78 396.64 494.41 396.41 494.47 396.01C494.64 394.8 495.36 394.71 495.36 394.71C495.36 394.71 495.5 394.7 495.72 394.69L495.75 394.59C495.2 394.59 494.75 394.58 494.5 394.55C494.39 394.54 494.32 394.52 494.31 394.51C494.31 394.51 492.9 394.34 493.01 393.6C493.18 392.39 493.9 392.3 493.9 392.3C493.9 392.3 494.39 392.27 495.06 392.22C494.5 392.22 494.02 392.21 493.77 392.18C493.66 392.17 493.59 392.15 493.58 392.14C493.58 392.14 492.17 391.97 492.28 391.23C492.45 390.02 493.17 389.93 493.17 389.93C493.17 389.93 493.56 389.9 494.13 389.87C493.67 389.87 493.3 389.85 493.09 389.83C492.98 389.82 492.91 389.8 492.9 389.79C492.9 389.79 491.49 389.62 491.6 388.88C491.77 387.67 492.49 387.58 492.49 387.58C492.49 387.58 494.7 387.42 496.23 387.36C496.23 387.36 497.96 385.8 498.63 385.88C499.65 385.99 505.55 388.17 505.55 388.17L506.71 388.53Z" fill="#FFBE9D"/>
<path d="M499.26 394.47C499.25 394.54 498.37 394.62 497.29 394.66C496.21 394.69 495.34 394.67 495.34 394.6C495.35 394.53 496.23 394.45 497.31 394.41C498.4 394.37 499.27 394.4 499.26 394.47Z" fill="#EB996E"/>
<path d="M499.28 392.08C499.28 392.15 498.03 392.25 496.48 392.31C494.93 392.36 493.68 392.35 493.67 392.28C493.67 392.21 494.92 392.11 496.47 392.05C498.02 392 499.27 392.01 499.28 392.08Z" fill="#EB996E"/>
<g opacity="0.78">
<g opacity="0.78">
<g opacity="0.78">
<g opacity="0.78">
<g opacity="0.78">
<path opacity="0.78" d="M499.08 389.66C499.08 389.73 497.83 389.83 496.28 389.89C494.73 389.94 493.48 389.93 493.47 389.86C493.47 389.79 494.72 389.69 496.27 389.63C497.82 389.58 499.07 389.59 499.08 389.66Z" fill="#EB996E"/>
</g>
</g>
</g>
</g>
</g>
<path d="M495.6 387.38C495.6 387.41 495.94 387.43 496.49 387.45C497.12 387.47 497.84 387.49 498.64 387.52C499.44 387.55 500.16 387.57 500.79 387.6C501.34 387.62 501.68 387.62 501.68 387.59C501.68 387.56 501.34 387.51 500.79 387.45C500.24 387.39 499.48 387.34 498.64 387.31C497.8 387.28 497.04 387.28 496.48 387.3C495.94 387.33 495.6 387.36 495.6 387.38Z" fill="#EB996E"/>
<path d="M506.61 387.29C506.61 387.29 506.66 387.29 506.75 387.29C506.85 387.28 506.98 387.28 507.15 387.27C507.52 387.25 508.04 387.22 508.7 387.18C510.06 387.1 512 386.98 514.4 386.83C519.21 386.54 525.86 386.12 533.21 385.75C534.56 385.69 535.88 385.63 537.15 385.57H537.24V385.47C537.3 383.88 537.45 382.31 537.56 380.82C537.69 379.33 537.81 377.89 537.93 376.53C538.17 373.81 538.39 371.39 538.57 369.36C538.75 367.34 538.89 365.72 538.99 364.59C539.03 364.04 539.07 363.61 539.1 363.3C539.11 363.16 539.12 363.05 539.12 362.97C539.12 362.89 539.12 362.86 539.12 362.86C539.12 362.86 539.11 362.9 539.1 362.97C539.09 363.05 539.08 363.16 539.06 363.3C539.03 363.61 538.98 364.03 538.92 364.58C538.81 365.71 538.64 367.33 538.44 369.35C538.25 371.38 538.02 373.8 537.76 376.52C537.64 377.88 537.51 379.32 537.38 380.81C537.26 382.31 537.11 383.86 537.05 385.48L537.15 385.38C535.89 385.44 534.56 385.5 533.21 385.56C525.86 385.93 519.21 386.37 514.4 386.7C512 386.87 510.06 387.02 508.7 387.12C508.04 387.18 507.52 387.22 507.15 387.25C506.98 387.27 506.85 387.28 506.75 387.29C506.65 387.28 506.61 387.28 506.61 387.29Z" fill="#263238"/>
</g>
<defs>
<clipPath id="clip0">
<rect width="691.77" height="448.4" fill="white"/>
</clipPath>
</defs>
</svg>
